<?xml version="1.0" standalone="no"?>
<!DOCTYPE svg PUBLIC "-//W3C//DTD SVG 1.1//EN" "http://www.w3.org/Graphics/SVG/1.1/DTD/svg11.dtd" >
<!--
2013-9-30: Created.
-->
<svg>
<metadata>
Created by iconfont
</metadata>
<defs>

<font id="font_family" horiz-adv-x="1024" >
  <font-face
    font-family="font_family"
    font-weight="500"
    font-stretch="normal"
    units-per-em="1024"
    ascent="896"
    descent="-128"
  />
    <missing-glyph />
    
    <glyph glyph-name="addMessage" unicode="&#59121;" d="M213.333333 725.333333a42.666667 42.666667 0 0 1-42.666666-42.666666v-453.333334a42.666667 42.666667 0 0 1 42.666666-42.666666h82.688a42.666667 42.666667 0 0 0 42.666667-42.666667v-74.965333l226.218667 113.109333a42.624 42.624 0 0 0 19.072 4.522667H810.666667a42.666667 42.666667 0 0 1 42.666666 42.666666V384a42.666667 42.666667 0 1 0 85.333334 0v-154.666667a128 128 0 0 0-128-128h-216.576l-279.04-139.52A42.666667 42.666667 0 0 0 253.354667 0v101.333333H213.333333a128 128 0 0 0-128 128V682.666667a128 128 0 0 0 128 128h250.666667a42.666667 42.666667 0 1 0 0-85.333334H213.333333z m514.688 85.333334a42.666667 42.666667 0 0 0 42.666667-42.666667v-101.333333h101.333333a42.666667 42.666667 0 1 0 0-85.333334h-101.333333V480a42.666667 42.666667 0 1 0-85.333333 0V581.333333h-101.333334a42.666667 42.666667 0 1 0 0 85.333334h101.290667V768a42.666667 42.666667 0 0 0 42.666667 42.666667z"  horiz-adv-x="1024" />

    
    <glyph glyph-name="app" unicode="&#59122;" d="M468.693333 879.274667a85.333333 85.333333 0 0 0 82.56 0l381.952-211.072a85.333333 85.333333 0 0 0 44.074667-74.666667v-419.029333a85.333333 85.333333 0 0 0-44.074667-74.666667l-381.952-211.114667a85.333333 85.333333 0 0 0-82.56 0l-381.952 211.072A85.333333 85.333333 0 0 0 42.666667 174.506667V593.493333a85.333333 85.333333 0 0 0 44.074666 74.666667L468.693333 879.317333z m423.253334-285.781334l-381.994667 211.072L128 593.493333v-418.986666l381.952-211.072 381.994667 211.072V593.493333z m-684.714667-42.197333a42.666667 42.666667 0 0 0 57.984 16.725333l244.736-135.253333 244.778667 135.253333a42.666667 42.666667 0 0 0 41.258666-74.666666l-243.370666-134.528v-268.16a42.666667 42.666667 0 0 0-85.333334 0V358.826667L223.914667 493.312a42.666667 42.666667 0 0 0-16.682667 58.026667z"  horiz-adv-x="1024" />

    
    <glyph glyph-name="airPlay" unicode="&#59123;" d="M0 711.552C0 786.986667 57.728 853.333333 135.125333 853.333333h753.749334C966.272 853.333333 1024 786.986667 1024 711.552v-497.152c0-75.477333-57.728-141.781333-135.125333-141.781333H789.333333a42.666667 42.666667 0 1 0 0 85.333333h99.541334c24.746667 0 49.792 22.4 49.792 56.448V711.552C938.666667 745.557333 913.621333 768 888.874667 768H135.125333C110.378667 768 85.333333 745.557333 85.333333 711.552v-497.152c0-34.048 25.045333-56.448 49.792-56.448H234.666667a42.666667 42.666667 0 1 0 0-85.333333H135.125333C57.728 72.618667 0 138.922667 0 214.4V711.552z m512-99.114667c-76.202667 0-146.773333-27.349333-204.117333-74.24A42.666667 42.666667 0 1 0 253.866667 604.288c71.466667 58.453333 160.896 93.44 258.133333 93.44s186.666667-34.986667 258.133333-93.44a42.666667 42.666667 0 1 0-54.016-66.090667C658.773333 585.088 588.202667 612.437333 512 612.437333z m0-152.533333c-41.557333 0-80.256-14.506667-112.170667-39.808A42.666667 42.666667 0 0 0 346.88 486.912 264.789333 264.789333 0 0 0 512 545.28c62.122667 0 119.253333-21.845333 165.162667-58.325333a42.666667 42.666667 0 0 0-52.992-66.816A179.456 179.456 0 0 1 512 459.904z m-181.333333-201.301333c0 48.085333 37.034667 92.202667 88.874666 92.202666h184.917334c51.84 0 88.874667-44.117333 88.874666-92.202666v-251.733334c0-48.042667-37.034667-92.202667-88.874666-92.202666H419.541333c-51.84 0-88.874667 44.16-88.874666 92.245333V258.56z m87.424 5.930666a8.661333 8.661333 0 0 1-2.090667-5.973333v-251.648c0-2.858667 1.066667-4.864 2.090667-5.973333a3.669333 3.669333 0 0 1 1.109333-0.853334 0.768 0.768 0 0 1 0.341333-0.085333h184.917334c0.128 0 0.213333 0 0.341333 0.085333a3.626667 3.626667 0 0 1 1.109333 0.853334 8.661333 8.661333 0 0 1 2.090667 5.973333V258.56a8.661333 8.661333 0 0 1-2.090667 5.930667 3.669333 3.669333 0 0 1-1.109333 0.853333 0.768 0.768 0 0 1-0.341333 0.085333H419.541333c-0.128 0-0.213333 0-0.341333-0.085333a3.669333 3.669333 0 0 1-1.109333-0.853333z"  horiz-adv-x="1024" />

    
    <glyph glyph-name="alarm" unicode="&#59124;" d="M512 618.666667a298.666667 298.666667 0 1 1 0-597.333334 298.666667 298.666667 0 0 1 0 597.333334z m-384-298.666667a384 384 0 1 0 768 0 384 384 0 0 0-768 0zM693.205333 796.074667a42.666667 42.666667 0 0 0 60.245334 4.053333l170.666666-149.333333a42.666667 42.666667 0 0 0-56.192-64.256l-170.666666 149.333333a42.666667 42.666667 0 0 0-4.053334 60.202667zM330.794667 796.074667a42.666667 42.666667 0 0 1-60.245334 4.053333l-170.666666-149.333333a42.666667 42.666667 0 0 1 56.192-64.256l170.666666 149.333333a42.666667 42.666667 0 0 1 4.053334 60.202667zM512 533.333333a42.666667 42.666667 0 0 0 42.666667-42.666666v-147.84l109.013333-72.661334a42.666667 42.666667 0 0 0-47.36-70.997333l-128 85.333333A42.666667 42.666667 0 0 0 469.333333 320v170.666667a42.666667 42.666667 0 0 0 42.666667 42.666666z"  horiz-adv-x="1024" />

    
    <glyph glyph-name="artBoard" unicode="&#59125;" d="M66.986667 503.253333C132.736 748.629333 385.834667 894.72 631.253333 829.013333c234.026667-62.72 399.786667-288.042667 337.792-519.381333A274.858667 274.858667 0 0 0 632.32 115.2l-79.36 21.248a27.050667 27.050667 0 0 1-33.109333-19.072 25.344 25.344 0 0 1 1.962666-18.474667l0.170667-0.426666 0.384-0.725334 0.213333-0.426666c5.930667-12.373333 17.621333-42.112 7.765334-78.933334a112.128 112.128 0 0 0-137.6-79.445333C147.370667 4.736 1.28 257.834667 66.986667 503.253333z m542.165333 243.328C409.258667 800.128 202.965333 681.045333 149.418667 481.152c-53.546667-199.893333 65.536-406.186667 265.429333-459.733333a26.794667 26.794667 0 0 1 33.066667 19.072 28.885333 28.885333 0 0 1-2.304 20.053333 110.677333 110.677333 0 0 0-8.192 78.933333 112.384 112.384 0 0 0 137.6 79.445334l79.402666-21.248a189.525333 189.525333 0 0 1 232.192 134.016c47.018667 175.488-77.866667 361.386667-277.461333 414.890666zM705.450667 373.717333a42.666667 42.666667 0 0 0 52.266666 30.165334l22.442667-6.016a42.666667 42.666667 0 0 0-22.101333-82.432l-22.442667 6.016a42.666667 42.666667 0 0 0-30.165333 52.266666zM620.117333 587.050667a42.666667 42.666667 0 0 0 52.266667 30.165333l22.442667-6.016a42.666667 42.666667 0 1 0-22.101334-82.432l-22.442666 6.016a42.666667 42.666667 0 0 0-30.165334 52.266667zM405.674667 657.066667a42.666667 42.666667 0 0 0 52.266666 30.165333l22.442667-6.016a42.666667 42.666667 0 0 0-22.101333-82.432l-22.442667 5.973333A42.666667 42.666667 0 0 0 405.674667 657.066667zM235.008 486.4a42.666667 42.666667 0 0 0 52.266667 30.165333l22.442666-6.016a42.666667 42.666667 0 1 0-22.101333-82.432l-22.442667 5.973334A42.666667 42.666667 0 0 0 235.008 486.4z"  horiz-adv-x="1024" />

    
    <glyph glyph-name="book" unicode="&#59126;" d="M170.666667 768a42.666667 42.666667 0 0 1-42.666667-42.666667v-597.333333a42.666667 42.666667 0 0 1 42.666667-42.666667h161.664a213.333333 213.333333 0 0 0 118.314666-35.84l61.354667-40.874666 61.354667 40.874666A213.333333 213.333333 0 0 0 691.626667 85.333333H853.333333a42.666667 42.666667 0 0 1 42.666667 42.666667V725.333333a42.666667 42.666667 0 0 1-42.666667 42.666667h-161.664c-17.706667 0-44.672-7.68-67.413333-20.906667-11.008-6.4-18.944-12.928-23.637333-18.346666a23.978667 23.978667 0 0 1-3.413334-4.821334V213.333333a42.666667 42.666667 0 0 0-85.333333 0V725.333333c0 24.746667 11.861333 44.970667 24.192 59.221334a178.688 178.688 0 0 0 45.354667 36.352c32.384 18.773333 74.026667 32.426667 110.250666 32.426666H853.333333a128 128 0 0 0 128-128v-597.333333a128 128 0 0 0-128-128h-161.664a128 128 0 0 1-70.997333-21.504l-84.992-56.661333a42.666667 42.666667 0 0 0-47.36 0l-84.992 56.661333A128 128 0 0 1 332.330667 0H170.666667a128 128 0 0 0-128 128V725.333333a128 128 0 0 0 128 128h161.664a213.333333 213.333333 0 0 0 118.314666-35.84 42.666667 42.666667 0 0 0-47.317333-70.997333A128 128 0 0 1 332.330667 768H170.666667zM213.333333 512a42.666667 42.666667 0 0 0 42.666667 42.666667h128a42.666667 42.666667 0 0 0 0-85.333334H256a42.666667 42.666667 0 0 0-42.666667 42.666667zM256 341.333333a42.666667 42.666667 0 0 0 42.666667 42.666667h85.333333a42.666667 42.666667 0 0 0 0-85.333333H298.666667a42.666667 42.666667 0 0 0-42.666667 42.666666z"  horiz-adv-x="1024" />

    
    <glyph glyph-name="book1" unicode="&#59127;" d="M1000.277333 806.229333a42.666667 42.666667 0 0 0 19.285334-57.173333l-230.272-464.554667A128 128 0 0 0 674.56 213.333333H173.653333a85.333333 85.333333 0 0 1 0-170.666666h544.725334a42.666667 42.666667 0 0 1 37.845333 22.954666l187.221333 359.424a42.666667 42.666667 0 0 0 75.690667-39.424l-187.221333-359.424A128 128 0 0 0 718.464-42.666667H173.696a170.666667 170.666667 0 1 0 0 341.333334H674.56a42.666667 42.666667 0 0 1 38.229333 23.722666l230.272 464.554667a42.666667 42.666667 0 0 0 57.173334 19.285333zM518.101333 725.333333a213.333333 213.333333 0 0 1-189.269333-114.901333l-205.653333-395.434667a42.666667 42.666667 0 0 0-75.690667 39.338667l205.653333 395.434667A298.666667 298.666667 0 0 0 518.058667 810.666667H970.24a42.666667 42.666667 0 1 0 0-85.333334H518.101333zM448 640a42.666667 42.666667 0 0 0 42.666667 42.666667H725.333333a42.666667 42.666667 0 0 0 0-85.333334h-234.666666a42.666667 42.666667 0 0 0-42.666667 42.666667zM384 512a42.666667 42.666667 0 0 0 42.666667 42.666667h234.666666a42.666667 42.666667 0 0 0 0-85.333334H426.666667a42.666667 42.666667 0 0 0-42.666667 42.666667z"  horiz-adv-x="1024" />

    
    <glyph glyph-name="book2" unicode="&#59128;" d="M456.874667 667.221333a42.666667 42.666667 0 0 0 42.666666 42.666667h270.250667a42.666667 42.666667 0 0 0 42.666667-42.666667v-338.389333a42.666667 42.666667 0 0 0-63.616-37.162667l-114.176 64.341334-114.176-64.341334a42.666667 42.666667 0 0 0-63.573334 37.12V667.264z m85.333333-42.666666v-222.72l71.509333 40.32a42.666667 42.666667 0 0 0 41.898667 0l71.509333-40.32v222.72h-184.917333zM330.666667 573.44a42.666667 42.666667 0 0 0 42.666666-42.666667V-85.333333a42.666667 42.666667 0 1 0-85.333333 0V530.773333a42.666667 42.666667 0 0 0 42.666667 42.666667zM85.333333 682.666667a213.333333 213.333333 0 0 0 213.333334 213.333333h597.333333a42.666667 42.666667 0 1 0 0-85.333333H298.666667a128.042667 128.042667 0 0 1-125.098667-100.778667H896a85.333333 85.333333 0 0 0 85.333333-85.333333V85.333333a213.333333 213.333333 0 0 0-213.333333-213.333333H298.666667a213.333333 213.333333 0 0 0-213.333334 213.333333V682.666667z m85.333334-58.112V85.333333a128 128 0 0 1 128-128h469.333333a128 128 0 0 1 128 128V624.554667H170.666667z"  horiz-adv-x="1024" />

    
    <glyph glyph-name="box" unicode="&#59129;" d="M468.693333 879.274667a85.333333 85.333333 0 0 0 82.56 0l381.952-211.072a85.333333 85.333333 0 0 0 44.074667-74.666667v-419.029333a85.333333 85.333333 0 0 0-44.074667-74.666667l-402.602666-222.506667a42.666667 42.666667 0 0 0-41.258667 0l-402.602667 222.464A85.333333 85.333333 0 0 0 42.666667 174.506667V618.666667a42.666667 42.666667 0 0 0 22.016 37.333333L468.693333 879.274667z m-82.346666-143.018667l338.645333-184.448 42.752 24.021333a42.666667 42.666667 0 0 0 41.813333-74.325333l-63.573333-35.84-193.365333-106.837333v-371.84l339.328 187.52V593.493333l-381.994667 211.072-123.605333-68.266666z m80.938666-749.226667V358.826667L128 546.346667v-371.84l339.285333-187.52zM173.525333 618.666667l336.426667-185.898667 126.72 69.973333L297.813333 687.36 173.525333 618.666667zM218.666667 369.834667a42.666667 42.666667 0 0 0 57.984 16.682666l91.434666-50.517333a42.666667 42.666667 0 0 0-41.301333-74.666667l-91.434667 50.517334a42.666667 42.666667 0 0 0-16.682666 57.984z"  horiz-adv-x="1024" />

    
    <glyph glyph-name="alarmAdd" unicode="&#59130;" d="M512 618.666667a298.666667 298.666667 0 1 1 0-597.333334 298.666667 298.666667 0 0 1 0 597.333334z m-384-298.666667a384 384 0 1 0 768 0 384 384 0 0 0-768 0zM341.333333 320a42.666667 42.666667 0 0 0 42.666667 42.666667h256a42.666667 42.666667 0 0 0 0-85.333334H384a42.666667 42.666667 0 0 0-42.666667 42.666667zM512 149.333333a42.666667 42.666667 0 0 0-42.666667 42.666667v256a42.666667 42.666667 0 0 0 85.333334 0v-256a42.666667 42.666667 0 0 0-42.666667-42.666667zM693.205333 796.074667a42.666667 42.666667 0 0 0 60.245334 4.053333l170.666666-149.333333a42.666667 42.666667 0 0 0-56.192-64.256l-170.666666 149.333333a42.666667 42.666667 0 0 0-4.053334 60.202667zM330.794667 796.074667a42.666667 42.666667 0 0 1-60.245334 4.053333l-170.666666-149.333333a42.666667 42.666667 0 0 1 56.192-64.256l170.666666 149.333333a42.666667 42.666667 0 0 1 4.053334 60.202667z"  horiz-adv-x="1024" />

    
    <glyph glyph-name="back" unicode="&#59131;" d="M423.466667 754.432a42.666667 42.666667 0 0 0-2.048-60.288l-142.506667-132.992h336.512a280.576 280.576 0 1 0 0-561.152H170.666667a42.666667 42.666667 0 1 0 0 85.333333h444.757333a195.242667 195.242667 0 1 1 0 390.485334H278.912l142.506667-133.034667a42.666667 42.666667 0 1 0-58.24-62.378667L141.568 487.253333a42.666667 42.666667 0 0 0 0 62.421334L363.178667 756.48a42.666667 42.666667 0 0 0 60.288-2.090667z"  horiz-adv-x="1024" />

    
    <glyph glyph-name="calendar" unicode="&#59132;" d="M810.666667 768a128 128 0 0 0 128-128v-554.666667a128 128 0 0 0-128-128H213.333333a128 128 0 0 0-128 128V640a128 128 0 0 0 128 128h21.333334a42.666667 42.666667 0 1 0 0-85.333333H213.333333a42.666667 42.666667 0 0 1-42.666666-42.666667v-554.666667a42.666667 42.666667 0 0 1 42.666666-42.666666h597.333334a42.666667 42.666667 0 0 1 42.666666 42.666666V640a42.666667 42.666667 0 0 1-42.666666 42.666667h-21.333334a42.666667 42.666667 0 0 0 0 85.333333h21.333334zM85.333333 512a42.666667 42.666667 0 0 0 42.666667 42.666667h597.333333a42.666667 42.666667 0 1 0 0-85.333334H128a42.666667 42.666667 0 0 0-42.666667 42.666667zM298.666667 341.333333a42.666667 42.666667 0 0 0 42.666666 42.666667h42.666667a42.666667 42.666667 0 0 0 0-85.333333H341.333333a42.666667 42.666667 0 0 0-42.666666 42.666666zM597.333333 341.333333a42.666667 42.666667 0 0 0 42.666667 42.666667h42.666667a42.666667 42.666667 0 0 0 0-85.333333h-42.666667a42.666667 42.666667 0 0 0-42.666667 42.666666zM298.666667 170.666667a42.666667 42.666667 0 0 0 42.666666 42.666666h42.666667a42.666667 42.666667 0 0 0 0-85.333333H341.333333a42.666667 42.666667 0 0 0-42.666666 42.666667zM597.333333 170.666667a42.666667 42.666667 0 0 0 42.666667 42.666666h42.666667a42.666667 42.666667 0 0 0 0-85.333333h-42.666667a42.666667 42.666667 0 0 0-42.666667 42.666667zM640 810.666667a42.666667 42.666667 0 0 0 42.666667-42.666667v-85.333333a42.666667 42.666667 0 0 0-85.333334 0V768a42.666667 42.666667 0 0 0 42.666667 42.666667zM384 810.666667a42.666667 42.666667 0 0 0 42.666667-42.666667v-85.333333a42.666667 42.666667 0 0 0-85.333334 0V768a42.666667 42.666667 0 0 0 42.666667 42.666667zM362.666667 725.333333a42.666667 42.666667 0 0 0 42.666666 42.666667h213.333334a42.666667 42.666667 0 0 0 0-85.333333h-213.333334a42.666667 42.666667 0 0 0-42.666666 42.666666z"  horiz-adv-x="1024" />

    
    <glyph glyph-name="Camera" unicode="&#59133;" d="M512 810.666667a341.333333 341.333333 0 1 1 0-682.666667 341.333333 341.333333 0 0 1 0 682.666667zM85.333333 469.333333C85.333333 704.981333 276.352 896 512 896s426.666667-191.018667 426.666667-426.666667-191.018667-426.666667-426.666667-426.666666S85.333333 233.685333 85.333333 469.333333zM213.333333-85.333333a42.666667 42.666667 0 0 0 42.666667 42.666666h512a42.666667 42.666667 0 1 0 0-85.333333H256a42.666667 42.666667 0 0 0-42.666667 42.666667zM445.738667 123.477333a42.666667 42.666667 0 0 0 19.072-57.216l-85.333334-170.666666a42.666667 42.666667 0 0 0-76.288 38.144l85.333334 170.666666a42.666667 42.666667 0 0 0 57.216 19.072zM578.261333 123.477333a42.666667 42.666667 0 0 1-19.072-57.216l85.333334-170.666666a42.666667 42.666667 0 0 1 76.288 38.144l-85.333334 170.666666a42.666667 42.666667 0 0 1-57.216 19.072zM512 580.266667a110.933333 110.933333 0 1 1 0-221.866667 110.933333 110.933333 0 0 1 0 221.866667zM315.733333 469.333333a196.266667 196.266667 0 1 0 392.533334 0 196.266667 196.266667 0 0 0-392.533334 0zM512 874.666667a42.666667 42.666667 0 0 0 42.666667-42.666667V768a42.666667 42.666667 0 0 0-85.333334 0V832a42.666667 42.666667 0 0 0 42.666667 42.666667z"  horiz-adv-x="1024" />

    
    <glyph glyph-name="cardSD" unicode="&#59134;" d="M222.805333 725.333333a128 128 0 0 0 128 128H768a128 128 0 0 0 128-128v-682.666666a128 128 0 0 0-128-128H256a128 128 0 0 0-128 128v85.333333a42.666667 42.666667 0 0 0 14.933333 32.426667l80.597334 68.949333a42.666667 42.666667 0 0 0 55.466666-64.853333L213.333333 108.330667V42.666667a42.666667 42.666667 0 0 1 42.666667-42.666667h512a42.666667 42.666667 0 0 1 42.666667 42.666667V725.333333a42.666667 42.666667 0 0 1-42.666667 42.666667H350.805333a42.666667 42.666667 0 0 1-42.666666-42.666667v-99.84a42.666667 42.666667 0 0 0-13.781334-31.402666L213.333333 519.68V298.666667a42.666667 42.666667 0 1 0-85.333333 0V538.410667a42.666667 42.666667 0 0 0 13.781333 31.402666l81.066667 74.453334V725.333333zM405.333333 682.666667a42.666667 42.666667 0 0 0 42.666667-42.666667v-85.333333a42.666667 42.666667 0 0 0-85.333333 0V640a42.666667 42.666667 0 0 0 42.666666 42.666667zM554.666667 682.666667a42.666667 42.666667 0 0 0 42.666666-42.666667v-85.333333a42.666667 42.666667 0 0 0-85.333333 0V640a42.666667 42.666667 0 0 0 42.666667 42.666667zM704 682.666667a42.666667 42.666667 0 0 0 42.666667-42.666667v-85.333333a42.666667 42.666667 0 0 0-85.333334 0V640a42.666667 42.666667 0 0 0 42.666667 42.666667z"  horiz-adv-x="1024" />

    
    <glyph glyph-name="cameraShot" unicode="&#59135;" d="M429.653333 725.333333a42.666667 42.666667 0 0 1-35.498666-18.986666l-59.989334-90.026667A42.666667 42.666667 0 0 0 298.666667 597.333333H170.666667a42.666667 42.666667 0 0 1-42.666667-42.666666v-469.333334a42.666667 42.666667 0 0 1 42.666667-42.666666h682.666666a42.666667 42.666667 0 0 1 42.666667 42.666666V554.666667a42.666667 42.666667 0 0 1-42.666667 42.666666h-21.333333a42.666667 42.666667 0 1 0 0 85.333334h21.333333a128 128 0 0 0 128-128v-469.333334a128 128 0 0 0-128-128H170.666667a128 128 0 0 0-128 128V554.666667a128 128 0 0 0 128 128h105.173333l47.36 70.997333A128 128 0 0 0 429.653333 810.666667h164.693334a128 128 0 0 0 106.496-57.002667l45.781333-68.693333a42.666667 42.666667 0 1 0-70.997333-47.317334l-45.781334 68.693334A42.666667 42.666667 0 0 1 594.346667 725.333333h-164.693334zM512 469.333333a128 128 0 1 1 0-256 128 128 0 0 1 0 256z m-213.333333-128a213.333333 213.333333 0 1 0 426.666666 0 213.333333 213.333333 0 0 0-426.666666 0zM192 490.666667a42.666667 42.666667 0 0 0 42.666667 42.666666H256a42.666667 42.666667 0 0 0 0-85.333333h-21.333333a42.666667 42.666667 0 0 0-42.666667 42.666667z"  horiz-adv-x="1024" />

    
    <glyph glyph-name="clean" unicode="&#59136;" d="M358.869333 210.688a42.666667 42.666667 0 0 0 25.258667-54.784l-39.68-107.648A67.541333 67.541333 0 0 1 407.893333-42.666667v-85.333333c-106.410667 0-180.266667 105.984-143.445333 205.781333l39.68 107.648a42.666667 42.666667 0 0 0 54.784 25.258667z m211.584 0a42.666667 42.666667 0 0 0 25.258667-54.784l-39.936-108.373333A67.029333 67.029333 0 0 1 618.666667-42.666667v-85.333333c-106.026667 0-179.626667 105.6-142.933334 205.056l39.936 108.373333a42.666667 42.666667 0 0 0 54.784 25.258667zM546.986667 840.618667A85.333333 85.333333 0 0 0 626.901333 896h100.864a85.333333 85.333333 0 0 0 79.914667-115.285333L722.901333 554.666667h41.728a42.666667 42.666667 0 0 0 0-85.333334H391.509333l-17.152-42.666666H938.666667a42.666667 42.666667 0 1 0 0-85.333334h-27.605334l-107.477333-298.965333a42.666667 42.666667 0 0 1 7.765333-42.197333l49.450667-57.770667a42.666667 42.666667 0 0 0-32.426667-70.4H226.133333c-118.698667 0-201.173333 118.186667-160.128 229.632L154.282667 341.333333H100.266667a42.666667 42.666667 0 1 0 0 85.333334h182.101333l29.952 74.496A85.333333 85.333333 0 0 0 391.509333 554.666667h48.256l107.221334 285.952zM530.901333 554.666667h100.864l96 256h-100.864l-96-256z m-285.696-213.333334l-99.072-269.184A85.333333 85.333333 0 0 1 226.133333-42.666667h510.805334a128 128 0 0 0-13.653334 113.92L820.352 341.333333H245.248z"  horiz-adv-x="1024" />

    
    <glyph glyph-name="class" unicode="&#59137;" d="M426.666667 746.666667C351.402667 746.666667 277.333333 667.818667 277.333333 554.666667c0-21.162667 9.130667-45.653333 25.088-72.533334 13.098667-22.058667 28.416-42.069333 42.624-60.586666l8.96-11.818667c13.226667-17.408 23.381333-38.314667 22.741334-62.08-0.64-24.704-12.672-43.946667-26.581334-57.813333-9.642667-9.642667-21.930667-17.322667-33.28-23.68-11.52-6.528-25.642667-13.568-41.045333-21.248l-0.768-0.426667c-31.829333-15.914667-73.258667-36.608-125.141333-67.754667-16.298667-9.813333-21.930667-24.618667-21.930667-70.058666 0-10.496 3.84-18.688 16-27.434667 13.866667-10.026667 36.522667-18.730667 68.053333-25.045333 62.72-12.629333 143.573333-12.842667 213.802667-11.52l19.882667 0.341333c62.378667 1.066667 128.597333 2.176 181.546666 13.056 29.269333 5.973333 49.749333 14.122667 62.08 23.424 10.410667 7.808 14.592 15.701333 14.634667 27.392a134.101333 134.101333 0 0 1-8.362667 43.605333c-5.973333 16.384-13.013333 25.557333-17.237333 28.714667-39.082667 29.312-78.592 49.194667-112.298667 64.725333-5.845333 2.730667-11.861333 5.418667-17.792 8.106667a1194.709333 1194.709333 0 0 0-27.989333 12.928c-11.861333 5.802667-27.434667 13.824-38.485333 24.874667-13.909333 13.909333-25.941333 33.109333-26.581334 57.813333-0.64 23.765333 9.557333 44.672 22.698667 62.08l9.002667 11.776c14.208 18.56 29.525333 38.570667 42.624 60.586667C545.536 509.013333 554.666667 533.504 554.666667 554.666667c0 57.514667-14.464 107.178667-37.845334 141.141333C494.165333 728.832 463.786667 746.666667 426.666667 746.666667zM192 554.666667c0 142.848 96.554667 277.333333 234.666667 277.333333 69.546667 0 124.501333-35.498667 160.469333-87.808C622.506667 692.821333 640 625.152 640 554.666667c0-43.733333-18.090667-84.138667-37.034667-116.096-15.914667-26.88-34.986667-51.626667-49.194666-70.186667l-7.722667-10.112a45.738667 45.738667 0 0 1-4.693333-7.253333 26.112 26.112 0 0 1 0.981333-0.938667c0.938667-0.64 4.906667-3.328 15.36-8.362667 7.125333-3.498667 14.890667-6.997333 23.978667-11.093333l20.224-9.216c35.626667-16.469333 81.493333-39.253333 127.701333-73.941333 23.253333-17.450667 37.674667-44.458667 46.165333-67.626667 8.789333-24.064 13.653333-50.602667 13.568-73.386667-0.213333-41.642667-19.712-73.429333-48.725333-95.232-27.136-20.352-61.952-31.744-96.170667-38.741333-61.312-12.586667-135.978667-13.824-196.778666-14.805333L427.52-42.666667c-69.418667-1.28-159.146667-1.536-232.277333 13.184-36.352 7.296-72.832 19.114667-101.12 39.509334C64 31.701333 42.666667 63.829333 42.666667 106.666667c0 44.288 2.773333 106.88 63.402666 143.232 54.698667 32.853333 98.56 54.784 130.688 70.826666l0.170667 0.085334c16.341333 8.192 28.586667 14.336 38.144 19.712 10.026667 5.632 13.738667 8.618667 14.762667 9.642666a29.312 29.312 0 0 1 0.810666 0.853334 45.653333 45.653333 0 0 1-4.693333 7.253333l-7.722667 10.112c-14.250667 18.517333-33.28 43.306667-49.194666 70.186667C210.090667 470.528 192 510.933333 192 554.666667z m348.501333-205.866667zM641.109333 730.282667a42.666667 42.666667 0 0 0 51.285334 31.829333c44.757333-10.453333 85.76-32.085333 115.498666-68.096C837.845333 657.749333 853.333333 610.56 853.333333 554.666667c0-66.517333-16.981333-110.976-52.053333-154.709334a17.152 17.152 0 0 1-2.261333-5.461333 46.293333 46.293333 0 0 1 0.170666-23.893333c6.144-5.461333 16.469333-13.482667 30.293334-24.192l20.309333-15.872c24.32-19.072 53.077333-42.410667 76.373333-65.706667 30.122667-30.122667 55.125333-82.816 54.869334-139.946667C980.650667 53.461333 917.034667 0 853.333333 0a42.666667 42.666667 0 1 0 0 85.333333c21.589333 0 42.24 20.181333 42.368 39.936 0.170667 34.048-15.616 64.981333-29.866666 79.232-19.370667 19.370667-44.629333 39.978667-68.693334 58.88l-16.085333 12.544c-17.066667 13.226667-33.322667 25.898667-42.325333 34.346667a81.536 81.536 0 0 0-20.906667 34.645333 123.690667 123.690667 0 0 0-5.632 35.541334c-0.341333 22.357333 4.864 50.901333 22.528 72.917333 22.613333 28.16 33.28 53.674667 33.28 101.290667 0 39.68-10.752 66.645333-25.898667 84.992-15.36 18.602667-38.4 32.170667-69.12 39.381333a42.666667 42.666667 0 0 0-31.872 51.242667z m158.549334-360.789334l-0.085334 0.128a1.024 1.024 0 0 0 0.085334-0.128z"  horiz-adv-x="1024" />

    
    <glyph glyph-name="chart" unicode="&#59138;" d="M64 682.666667a128 128 0 0 0 128 128h99.541333a128 128 0 0 0 128-128v-128h142.250667a128 128 0 0 0 128-128v-85.333334H832a128 128 0 0 0 128-128v-213.333333a42.666667 42.666667 0 0 0-42.666667-42.666667h-810.666666a42.666667 42.666667 0 1 0 0 85.333334h227.541333V682.666667a42.666667 42.666667 0 0 1-42.666667 42.666666H192a42.666667 42.666667 0 0 1-42.666667-42.666666v-508.970667a42.666667 42.666667 0 1 0-85.333333 0V682.666667z m355.541333-640h184.917334v384a42.666667 42.666667 0 0 1-42.666667 42.666666H419.541333v-426.666666z m270.250667 0H874.666667v170.666666a42.666667 42.666667 0 0 1-42.666667 42.666667h-142.208v-213.333333z"  horiz-adv-x="1024" />

    
    <glyph glyph-name="box1" unicode="&#59139;" d="M145.749333 734.165333A128 128 0 0 0 262.954667 810.666667h498.090666a128 128 0 0 0 117.205334-76.501334l99.498666-226.346666A42.666667 42.666667 0 0 0 981.333333 490.666667V85.333333a128 128 0 0 0-128-128H170.666667a128 128 0 0 0-128 128V490.666667a42.666667 42.666667 0 0 0 3.626666 17.152l99.456 226.346666zM262.954667 725.333333a42.666667 42.666667 0 0 1-39.082667-25.514666L128 481.706667V85.333333a42.666667 42.666667 0 0 1 42.666667-42.666666h682.666666a42.666667 42.666667 0 0 1 42.666667 42.666666V481.706667l-95.872 218.112A42.666667 42.666667 0 0 1 761.045333 725.333333H262.954667zM439.210667 808.789333a42.666667 42.666667 0 0 0 28.245333-53.333333L384 484.266667V341.333333a42.666667 42.666667 0 0 1 42.666667-42.666666h170.666666a42.666667 42.666667 0 0 1 42.666667 42.666666V484.266667l-44.074667 143.189333a42.666667 42.666667 0 1 0 81.578667 25.088l45.952-149.333333A42.666667 42.666667 0 0 0 725.333333 490.666667V341.333333a128 128 0 0 0-128-128h-170.666666a128 128 0 0 0-128 128V490.666667a42.666667 42.666667 0 0 0 1.877333 12.544l85.333333 277.333333a42.666667 42.666667 0 0 0 53.333334 28.245333zM64 490.666667a42.666667 42.666667 0 0 0 42.666667 42.666666h810.666666a42.666667 42.666667 0 1 0 0-85.333333h-810.666666a42.666667 42.666667 0 0 0-42.666667 42.666667z"  horiz-adv-x="1024" />

    
    <glyph glyph-name="clock" unicode="&#59140;" d="M512 768a384 384 0 1 1 0-768 384 384 0 0 1 0 768zM42.666667 384C42.666667 643.2 252.8 853.333333 512 853.333333s469.333333-210.133333 469.333333-469.333333-210.133333-469.333333-469.333333-469.333333S42.666667 124.8 42.666667 384zM512 682.666667a42.666667 42.666667 0 0 0 42.666667-42.666667v-213.333333h213.333333a42.666667 42.666667 0 0 0 0-85.333334h-256a42.666667 42.666667 0 0 0-42.666667 42.666667V640a42.666667 42.666667 0 0 0 42.666667 42.666667z"  horiz-adv-x="1024" />

    
    <glyph glyph-name="codeQR" unicode="&#59141;" d="M85.333333 682.666667a128 128 0 0 0 128 128h213.333334a128 128 0 0 0 128-128v-213.333334a128 128 0 0 0-128-128H213.333333a128 128 0 0 0-128 128V682.666667z m128 42.666666a42.666667 42.666667 0 0 1-42.666666-42.666666v-213.333334a42.666667 42.666667 0 0 1 42.666666-42.666666h213.333334a42.666667 42.666667 0 0 1 42.666666 42.666666V682.666667a42.666667 42.666667 0 0 1-42.666666 42.666666H213.333333zM640 170.666667a85.333333 85.333333 0 0 0 85.333333 85.333333h128a85.333333 85.333333 0 0 0 85.333334-85.333333v-128a85.333333 85.333333 0 0 0-85.333334-85.333334h-128a85.333333 85.333333 0 0 0-85.333333 85.333334v128z m213.333333 0h-128v-128h128v128zM896 810.666667a42.666667 42.666667 0 0 0 42.666667-42.666667v-170.666667a42.666667 42.666667 0 0 0-85.333334 0V768a42.666667 42.666667 0 0 0 42.666667 42.666667zM896 469.333333a42.666667 42.666667 0 0 0 42.666667-42.666666v-42.666667a42.666667 42.666667 0 0 0-85.333334 0v42.666667a42.666667 42.666667 0 0 0 42.666667 42.666666zM704 810.666667a42.666667 42.666667 0 0 0 42.666667-42.666667v-384a42.666667 42.666667 0 1 0-85.333334 0V768a42.666667 42.666667 0 0 0 42.666667 42.666667zM85.333333 0a42.666667 42.666667 0 0 0 42.666667 42.666667h384a42.666667 42.666667 0 1 0 0-85.333334H128a42.666667 42.666667 0 0 0-42.666667 42.666667zM85.333333 192a42.666667 42.666667 0 0 0 42.666667 42.666667h42.666667a42.666667 42.666667 0 0 0 0-85.333334H128a42.666667 42.666667 0 0 0-42.666667 42.666667zM298.666667 192a42.666667 42.666667 0 0 0 42.666666 42.666667h170.666667a42.666667 42.666667 0 0 0 0-85.333334H341.333333a42.666667 42.666667 0 0 0-42.666666 42.666667z"  horiz-adv-x="1024" />

    
    <glyph glyph-name="computer" unicode="&#59142;" d="M42.666667 640a128 128 0 0 0 128 128h682.666666a128 128 0 0 0 128-128v-366.933333a128 128 0 0 0-128-128H170.666667a128 128 0 0 0-128 128V640z m128 42.666667a42.666667 42.666667 0 0 1-42.666667-42.666667v-366.933333a42.666667 42.666667 0 0 1 42.666667-42.666667h682.666666a42.666667 42.666667 0 0 1 42.666667 42.666667V640a42.666667 42.666667 0 0 1-42.666667 42.666667H170.666667zM42.666667 42.666667a42.666667 42.666667 0 0 0 42.666666 42.666666h853.333334a42.666667 42.666667 0 1 0 0-85.333333H85.333333a42.666667 42.666667 0 0 0-42.666666 42.666667zM448 597.333333a42.666667 42.666667 0 0 0 42.666667 42.666667h42.666666a42.666667 42.666667 0 0 0 0-85.333333h-42.666666a42.666667 42.666667 0 0 0-42.666667 42.666666z"  horiz-adv-x="1024" />

    
    <glyph glyph-name="chemistry" unicode="&#59143;" d="M375.466667 768c25.6 0 42.666667-17.066667 42.666666-42.666667v-213.333333L115.2 21.33333300000004c-17.066667-25.6 4.266667-64 38.4-64h716.8c34.133333 0 55.466667 38.4 38.4 64L605.866667 512V725.333333c0 25.6 17.066667 42.666667 42.666666 42.666667s42.666667-17.066667 42.666667-42.666667v-187.733333l290.133333-469.333333c51.2-85.333333-8.533333-196.266667-110.933333-196.266667H153.6C55.466667-128-8.533333-17.066667000000052 42.666667 68.26666699999998l290.133333 469.333333V725.333333c0 25.6 17.066667 42.666667 42.666667 42.666667zM230.4 337.06666700000005c0 25.6 17.066667 42.666667 42.666667 42.666666h349.866666c25.6 0 42.666667-17.066667 42.666667-42.666666s-17.066667-42.666667-42.666667-42.666667H273.066667c-25.6 0-42.666667 21.333333-42.666667 42.666667zM580.266667 149.33333300000004c-12.8 0-25.6-12.8-25.6-25.6s12.8-25.6 25.6-25.6 25.6 12.8 25.6 25.6-12.8 25.6-25.6 25.6z m-110.933334-25.6c0 59.733333 51.2 110.933333 110.933334 110.933334s110.933333-46.933333 110.933333-110.933334c0-59.733333-51.2-110.933333-110.933333-110.933333S469.333333 64 469.333333 123.73333300000002zM298.666667 192c0 25.6 17.066667 42.666667 42.666666 42.666667h21.333334c25.6 0 42.666667-17.066667 42.666666-42.666667s-17.066667-42.666667-42.666666-42.666667H341.333333c-25.6 0-42.666667 17.066667-42.666666 42.666667zM251.733333 772.266667c-21.333333 12.8-25.6 38.4-17.066666 59.733333C260.266667 870.4 302.933333 896 345.6 896h328.533333c46.933333 0 85.333333-25.6 110.933334-64 12.8-21.333333 4.266667-46.933333-12.8-59.733333s-46.933333-4.266667-59.733334 17.066666c-8.533333 12.8-21.333333 21.333333-34.133333 21.333334H345.6c-12.8 0-25.6-8.533333-34.133333-21.333334-12.8-21.333333-38.4-25.6-59.733334-17.066666z"  horiz-adv-x="1024" />

    
    <glyph glyph-name="cloud" unicode="&#59144;" d="M832 426.666667C810.666667 593.066667 678.4 725.333333 512 725.333333 379.733333 725.333333 268.8 644.266667 221.866667 524.8c-128-4.266667-221.866667-110.933333-221.866667-238.933333C0 153.60000000000002 102.4 42.66666699999996 230.4 42.66666699999996h601.6c106.666667 0 192 85.333333 192 192S938.666667 426.666667 832 426.666667z m0-298.666667H230.4C153.6 128 85.333333 196.26666699999998 85.333333 285.866667s68.266667 157.866667 145.066667 157.866666H256c29.866667 0 59.733333-17.066667 76.8-51.2 8.533333-21.333333 34.133333-29.866667 55.466667-21.333333 21.333333 8.533333 29.866667 34.133333 21.333333 55.466667-21.333333 46.933333-59.733333 76.8-98.133333 89.6C354.133333 593.066667 426.666667 640 512 640c128 0 234.666667-110.933333 234.666667-256 0-12.8-4.266667-46.933333-12.8-72.533333-8.533333-21.333333 4.266667-46.933333 25.6-55.466667s46.933333 4.266667 55.466666 25.6c4.266667 17.066667 8.533333 38.4 12.8 55.466667h4.266667c59.733333 0 106.666667-46.933333 106.666667-106.666667S891.733333 128 832 128z"  horiz-adv-x="1024" />

    
    <glyph glyph-name="coins" unicode="&#59145;" d="M119.466667 750.933333C187.733333 789.333333 277.333333 810.666667 375.466667 810.666667c93.866667 0 174.933333-21.333333 243.2-55.466667 64-34.133333 119.466667-85.333333 128-153.6 4.266667-21.333333-12.8-46.933333-34.133334-51.2-21.333333-4.266667-46.933333 12.8-51.2 34.133333-4.266667 29.866667-29.866667 64-85.333333 89.6-51.2 25.6-123.733333 42.666667-204.8 42.666667-85.333333 0-162.133333-21.333333-213.333333-51.2-51.2-21.333333-72.533333-55.466667-72.533334-85.333333 0-25.6 12.8-55.466667 51.2-81.066667 34.133333-25.6 85.333333-46.933333 149.333334-59.733333 21.333333-4.266667 38.4-25.6 34.133333-51.2-4.266667-21.333333-25.6-38.4-51.2-34.133334-64 12.8-123.733333 34.133333-170.666667 64 0 0 0-4.266667-4.266666-4.266666-4.266667-12.8-8.533333-21.333333-8.533334-34.133334 0-25.6 12.8-51.2 51.2-81.066666 34.133333-25.6 85.333333-46.933333 149.333334-59.733334 21.333333-4.266667 38.4-25.6 34.133333-51.2-4.266667-21.333333-25.6-38.4-51.2-34.133333-68.266667 12.8-128 34.133333-174.933333 68.266667-4.266667-8.533333-8.533333-21.333333-8.533334-34.133334 0-29.866667 21.333333-59.733333 68.266667-89.6 46.933333-29.866667 115.2-51.2 192-55.466666 21.333333 0 38.4-21.333333 38.4-42.666667 0-25.6-21.333333-42.666667-46.933333-38.4-89.6 4.266667-170.666667 29.866667-230.4 68.266667-59.733333 34.133333-106.666667 89.6-106.666667 157.866666 0 29.866667 8.533333 55.466667 21.333333 81.066667l12.8 12.8C12.8 311.46666700000003 0 341.33333300000004 0 379.733333c0 29.866667 8.533333 55.466667 21.333333 81.066667 4.266667 8.533333 8.533333 12.8 17.066667 17.066667C12.8 503.466667 0 537.6 0 580.266667c0 72.533333 51.2 132.266667 119.466667 170.666666zM1024 315.733333c0 64-46.933333 115.2-102.4 145.066667-59.733333 34.133333-136.533333 51.2-217.6 51.2s-157.866667-17.066667-217.6-51.2c-55.466667-29.866667-102.4-81.066667-102.4-145.066667 0-29.866667 12.8-59.733333 29.866667-81.066666-17.066667-21.333333-29.866667-46.933333-29.866667-81.066667 0-64 46.933333-115.2 102.4-145.066667 59.733333-29.866667 132.266667-51.2 217.6-51.2s157.866667 17.066667 217.6 51.2c55.466667 29.866667 102.4 81.066667 102.4 145.066667 0 34.133333-12.8 59.733333-25.6 81.066667 12.8 21.333333 25.6 51.2 25.6 81.066666z m-145.066667-234.666666c-42.666667-25.6-106.666667-38.4-174.933333-38.4s-132.266667 17.066667-174.933333 38.4c-42.666667 25.6-59.733333 51.2-59.733334 72.533333 0 8.533333 0 12.8 8.533334 21.333333 59.733333-34.133333 140.8-55.466667 226.133333-55.466666s166.4 21.333333 226.133333 55.466666c4.266667-8.533333 8.533333-12.8 8.533334-21.333333 0-21.333333-17.066667-46.933333-59.733334-72.533333z m34.133334 187.733333c-38.4-34.133333-115.2-64-209.066667-64-89.6 0-162.133333 25.6-200.533333 55.466667l-4.266667 4.266666-4.266667 4.266667c-17.066667 17.066667-25.6 34.133333-25.6 46.933333 0 21.333333 17.066667 46.933333 59.733334 72.533334 42.666667 25.6 106.666667 38.4 174.933333 38.4s132.266667-17.066667 174.933333-38.4c42.666667-25.6 59.733333-51.2 59.733334-72.533334 0-12.8-8.533333-29.866667-25.6-46.933333z"  horiz-adv-x="1024" />

    
    <glyph glyph-name="coupon" unicode="&#59146;" d="M128 682.666667a42.666667 42.666667 0 0 1-42.666667-42.666667v-102.613333a179.2 179.2 0 0 0 0-323.84V110.933333a42.666667 42.666667 0 0 1 42.666667-42.666666h768a42.666667 42.666667 0 0 1 42.666667 42.666666v102.613334a179.2 179.2 0 0 0 0 323.84V640a42.666667 42.666667 0 0 1-42.666667 42.666667H366.933333v-490.666667a42.666667 42.666667 0 1 0-85.333333 0V682.666667H128zM0 640a128 128 0 0 0 128 128h768a128 128 0 0 0 128-128v-132.266667a42.666667 42.666667 0 0 0-32-41.386666 93.909333 93.909333 0 0 1 0-181.76 42.666667 42.666667 0 0 0 32-41.386667v-132.266667a128 128 0 0 0-128-128H128a128 128 0 0 0-128 128v132.266667a42.666667 42.666667 0 0 0 32 41.386667 93.909333 93.909333 0 0 1 0 181.76A42.666667 42.666667 0 0 0 0 507.733333V640z m452.266667-179.2a42.666667 42.666667 0 0 0 42.666666 42.666667H640a42.666667 42.666667 0 1 0 0-85.333334h-145.066667a42.666667 42.666667 0 0 0-42.666666 42.666667z m0-217.6a42.666667 42.666667 0 0 0 42.666666 42.666667H725.333333a42.666667 42.666667 0 1 0 0-85.333334h-230.4a42.666667 42.666667 0 0 0-42.666666 42.666667z"  horiz-adv-x="1024" />

    
    <glyph glyph-name="contact" unicode="&#59147;" d="M128 682.666667a128 128 0 0 0 128 128h554.666667a128 128 0 0 0 128-128v-597.333334a128 128 0 0 0-128-128H256a128 128 0 0 0-128 128v21.333334a42.666667 42.666667 0 1 0 85.333333 0v-21.333334a42.666667 42.666667 0 0 1 42.666667-42.666666h554.666667a42.666667 42.666667 0 0 1 42.666666 42.666666V682.666667a42.666667 42.666667 0 0 1-42.666666 42.666666H256a42.666667 42.666667 0 0 1-42.666667-42.666666v-21.333334a42.666667 42.666667 0 0 0-85.333333 0V682.666667zM85.333333 512a42.666667 42.666667 0 0 0 42.666667 42.666667h85.333333a42.666667 42.666667 0 0 0 0-85.333334H128a42.666667 42.666667 0 0 0-42.666667 42.666667zM85.333333 384a42.666667 42.666667 0 0 0 42.666667 42.666667h85.333333a42.666667 42.666667 0 0 0 0-85.333334H128a42.666667 42.666667 0 0 0-42.666667 42.666667zM85.333333 256a42.666667 42.666667 0 0 0 42.666667 42.666667h85.333333a42.666667 42.666667 0 0 0 0-85.333334H128a42.666667 42.666667 0 0 0-42.666667 42.666667zM533.333333 554.666667a85.333333 85.333333 0 1 1 0-170.666667 85.333333 85.333333 0 0 1 0 170.666667z m-170.666666-85.333334a170.666667 170.666667 0 1 0 341.333333 0 170.666667 170.666667 0 0 0-341.333333 0zM533.333333 298.666667a149.418667 149.418667 0 0 1-145.621333-116.096 42.666667 42.666667 0 0 0-83.2 18.858666 234.752 234.752 0 0 0 457.685333 0 42.666667 42.666667 0 1 0-83.2-18.858666A149.418667 149.418667 0 0 1 533.333333 298.666667z"  horiz-adv-x="1024" />

    
    <glyph glyph-name="diamond" unicode="&#59148;" d="M194.005333 832.938667A42.666667 42.666667 0 0 0 230.4 853.333333h563.2a42.666667 42.666667 0 0 0 36.394667-20.394666l187.733333-306.645334a42.666667 42.666667 0 0 0-72.789333-44.544L769.706667 768H254.293333L94.72 507.306667 512-12.842667l324.352 404.394667a42.666667 42.666667 0 0 0 66.56-53.418667l-357.632-445.866666a42.666667 42.666667 0 0 0-66.56 0L9.386667 477.354667a42.666667 42.666667 0 0 0-3.114667 48.938666l187.733333 306.645334z m130.773334-400.554667C279.210667 488.064 318.848 571.733333 390.826667 571.733333h242.346666c71.978667 0 111.616-83.626667 66.048-139.349333l-121.173333-148.096a85.333333 85.333333 0 0 0-132.096 0l-121.173333 148.053333zM390.826667 486.4L512 338.346667l121.173333 148.053333H390.826667z"  horiz-adv-x="1024" />

    
    <glyph glyph-name="edit" unicode="&#59149;" d="M680.277333 798.293333a42.666667 42.666667 0 0 0 60.074667 0l185.685333-184.32a42.666667 42.666667 0 0 0 0-60.586666L399.957333 31.146667a42.666667 42.666667 0 0 0-26.026666-12.202667l-199.253334-18.773333a42.666667 42.666667 0 0 0-46.592 45.354666l13.568 203.093334a42.666667 42.666667 0 0 0 12.501334 27.434666l268.202666 266.24a42.666667 42.666667 0 0 0 60.16-60.586666L225.706667 226.816l-9.130667-136.96 134.101333 12.629333L835.456 583.68l-125.141333 124.202667-94.421334-93.738667 74.837334-71.253333a42.666667 42.666667 0 1 0-58.794667-61.781334l-106.666667 101.461334a42.666667 42.666667 0 0 0-0.64 61.226666l155.605334 154.453334zM682.666667 170.666667a42.666667 42.666667 0 0 0 42.666666 42.666666h170.666667a42.666667 42.666667 0 1 0 0-85.333333h-170.666667a42.666667 42.666667 0 0 0-42.666666 42.666667z m-192-170.666667a42.666667 42.666667 0 0 0 42.666666 42.666667H896a42.666667 42.666667 0 1 0 0-85.333334h-362.666667a42.666667 42.666667 0 0 0-42.666666 42.666667z"  horiz-adv-x="1024" />

    
    <glyph glyph-name="earPhone" unicode="&#59150;" d="M128-42.666667a42.666667 42.666667 0 0 0-42.666667 42.666667V469.333333a384 384 0 0 0 384 384h85.333334a384 384 0 0 0 384-384v-469.333333a42.666667 42.666667 0 0 0-42.666667-42.666667h-85.333333a128 128 0 0 0-128 128v85.333334a128 128 0 0 0 128 128h42.666666v170.666666a298.666667 298.666667 0 0 1-298.666666 298.666667h-85.333334a298.666667 298.666667 0 0 1-298.666666-298.666667v-170.666666h42.666666a128 128 0 0 0 128-128v-85.333334a128 128 0 0 0-128-128H128z m42.666667 256v-170.666666h42.666666a42.666667 42.666667 0 0 1 42.666667 42.666666v85.333334a42.666667 42.666667 0 0 1-42.666667 42.666666H170.666667z m682.666666 0h-42.666666a42.666667 42.666667 0 0 1-42.666667-42.666666v-85.333334a42.666667 42.666667 0 0 1 42.666667-42.666666h42.666666v170.666666z"  horiz-adv-x="1024" />

    
    <glyph glyph-name="emoji" unicode="&#59151;" d="M512 768a384 384 0 1 1 0-768 384 384 0 0 1 0 768zM42.666667 384C42.666667 643.2 252.8 853.333333 512 853.333333s469.333333-210.133333 469.333333-469.333333-210.133333-469.333333-469.333333-469.333333S42.666667 124.8 42.666667 384z m533.333333 64a42.666667 42.666667 0 0 0 42.666667 42.666667h85.333333a42.666667 42.666667 0 1 0 0-85.333334h-85.333333a42.666667 42.666667 0 0 0-42.666667 42.666667z m-254.165333-193.834667a42.666667 42.666667 0 0 0 60.330666 0 183.594667 183.594667 0 0 1 259.669334 0 42.666667 42.666667 0 0 0 60.330666-60.330666 268.928 268.928 0 0 0-380.330666 0 42.666667 42.666667 0 0 0 0 60.330666zM362.666667 533.333333a42.666667 42.666667 0 0 0 42.666666-42.666666v-80a42.666667 42.666667 0 0 0-85.333333 0V490.666667a42.666667 42.666667 0 0 0 42.666667 42.666666z"  horiz-adv-x="1024" />

    
    <glyph glyph-name="fileBox" unicode="&#59152;" d="M883.2 669.866667l-213.333333 213.333333c-8.533333 8.533333-17.066667 12.8-29.866667 12.8H298.666667C226.133333 896 170.666667 840.533333 170.666667 768v-128c0-25.6 17.066667-42.666667 42.666666-42.666667s42.666667 17.066667 42.666667 42.666667V768c0 25.6 17.066667 42.666667 42.666667 42.666667h298.666666v-170.666667c0-25.6 17.066667-42.666667 42.666667-42.666667h213.333333c17.066667 0 34.133333 8.533333 38.4 25.6s4.266667 34.133333-8.533333 46.933334zM682.666667 682.666667V750.933333L750.933333 682.666667H682.666667zM0 469.333333c0 46.933333 38.4 85.333333 85.333333 85.333334h853.333334c46.933333 0 85.333333-38.4 85.333333-85.333334v-128c0-46.933333-38.4-85.333333-85.333333-85.333333H85.333333c-46.933333 0-85.333333 38.4-85.333333 85.333333v128z m938.666667 0H85.333333v-128h853.333334v128zM85.333333 298.66666699999996c0 25.6 17.066667 42.666667 42.666667 42.666666h768c25.6 0 42.666667-17.066667 42.666667-42.666666v-341.333334c0-46.933333-38.4-85.333333-85.333334-85.333333H170.666667c-46.933333 0-85.333333 38.4-85.333334 85.333333v341.333334z m85.333334-42.666667v-298.666667h682.666666v298.666667H170.666667z"  horiz-adv-x="1024" />

    
    <glyph glyph-name="errorList" unicode="&#59153;" d="M506.368 542.378667a42.666667 42.666667 0 0 0 0.469333-60.330667l-81.493333-82.773333a77.824 77.824 0 0 0-111.104 0l-45.952 46.677333a42.666667 42.666667 0 1 0 60.757333 59.904l40.746667-41.386667 76.245333 77.482667a42.666667 42.666667 0 0 0 60.330667 0.426667zM268.714667 296.234667a42.666667 42.666667 0 0 0 60.330666-0.426667l49.621334-50.389333 49.621333 50.346666a42.666667 42.666667 0 1 0 60.757333-59.861333l-50.474666-51.285333 50.474666-51.285334a42.666667 42.666667 0 1 0-60.757333-59.904l-49.621333 50.346667-49.621334-50.346667a42.666667 42.666667 0 1 0-60.757333 59.904l50.474667 51.285334-50.474667 51.285333a42.666667 42.666667 0 0 0 0.426667 60.330667zM597.333333 448a42.666667 42.666667 0 0 0 42.666667 42.666667h85.333333a42.666667 42.666667 0 0 0 0-85.333334h-85.333333a42.666667 42.666667 0 0 0-42.666667 42.666667z m0-256a42.666667 42.666667 0 0 0 42.666667 42.666667h85.333333a42.666667 42.666667 0 0 0 0-85.333334h-85.333333a42.666667 42.666667 0 0 0-42.666667 42.666667zM298.666667 768a85.333333 85.333333 0 0 0 85.333333 85.333333h256a85.333333 85.333333 0 0 0 85.333333-85.333333v-85.333333a85.333333 85.333333 0 0 0-85.333333-85.333334H384a85.333333 85.333333 0 0 0-85.333333 85.333334V768z m341.333333 0H384v-85.333333h256V768zM170.666667 682.666667a42.666667 42.666667 0 0 1-42.666667-42.666667v-554.666667a85.333333 85.333333 0 0 1 85.333333-85.333333h597.333334a85.333333 85.333333 0 0 1 85.333333 85.333333V640a42.666667 42.666667 0 0 1-42.666667 42.666667h-42.666666a42.666667 42.666667 0 1 0 0 85.333333h42.666666a128 128 0 0 0 128-128v-554.666667a170.666667 170.666667 0 0 0-170.666666-170.666666H213.333333a170.666667 170.666667 0 0 0-170.666666 170.666666V640a128 128 0 0 0 128 128h42.666666a42.666667 42.666667 0 0 0 0-85.333333H170.666667z"  horiz-adv-x="1024" />

    
    <glyph glyph-name="explore" unicode="&#59154;" d="M512 768a384 384 0 0 1-376.32-460.842667 42.666667 42.666667 0 0 0-83.626667-16.981333A471.253333 471.253333 0 0 0 42.666667 384C42.666667 643.2 252.8 853.333333 512 853.333333c88.32 0 171.093333-24.448 241.664-66.944 33.237333 20.096 64.042667 35.541333 90.88 44.544 16.384 5.504 33.621333 9.386667 50.218667 9.173334 16.853333-0.213333 36.949333-4.821333 52.736-20.608s20.394667-35.882667 20.608-52.736c0.213333-16.597333-3.669333-33.834667-9.173334-50.261334-8.96-26.794667-24.448-57.6-44.544-90.837333A467.328 467.328 0 0 0 981.333333 384c0-259.2-210.133333-469.333333-469.333333-469.333333-88.32 0-171.093333 24.448-241.664 66.944-33.237333-20.096-64.042667-35.541333-90.88-44.544-16.384-5.504-33.621333-9.386667-50.218667-9.173334-16.810667 0.213333-36.949333 4.821333-52.736 20.608s-20.394667 35.882667-20.608 52.736c-0.213333 16.64 3.669333 33.834667 9.173334 50.261334 11.093333 32.981333 31.957333 72.106667 59.221333 114.304 60.245333 93.141333 157.994667 210.944 276.48 329.429333 95.530667 95.530667 190.549333 177.536 272.64 237.312A382.421333 382.421333 0 0 1 512 768z m359.637333-17.962667c-23.168-7.765333-55.338667-24.32-95.104-50.005333-86.613333-55.978667-199.68-149.418667-315.434666-265.130667-115.712-115.754667-209.152-228.864-265.130667-315.434666-25.685333-39.765333-42.24-71.936-50.005333-95.104-1.109333-3.413333-2.005333-6.442667-2.688-9.088 2.645333 0.682667 5.674667 1.578667 9.088 2.730666 23.168 7.722667 55.338667 24.277333 95.104 49.92a42.666667 42.666667 0 0 0 47.36-0.64A382.037333 382.037333 0 0 1 512 0a384 384 0 0 1 384 384 382.037333 382.037333 0 0 1-67.285333 217.173333 42.666667 42.666667 0 0 0-0.682667 47.36c25.685333 39.765333 42.24 71.936 50.005333 95.104 1.109333 3.413333 2.005333 6.442667 2.688 9.088a130.901333 130.901333 0 0 1-9.088-2.688zM576 298.666667a64 64 0 1 1 0-128 64 64 0 0 1 0 128zM426.666667 234.666667a149.333333 149.333333 0 1 0 298.666666 0 149.333333 149.333333 0 0 0-298.666666 0z"  horiz-adv-x="1024" />

    
    <glyph glyph-name="fileAdd" unicode="&#59155;" d="M192 640a213.333333 213.333333 0 0 0 213.333333 213.333333H810.666667a213.333333 213.333333 0 0 0 213.333333-213.333333v-64a42.666667 42.666667 0 0 0-42.666667-42.666667H469.333333a42.666667 42.666667 0 0 0-42.666666 42.666667c0 10.581333-0.256 24.96-5.290667 38.357333-4.309333 11.52-11.861333 21.930667-29.525333 27.818667a42.666667 42.666667 0 1 0 26.965333 80.981333A128.597333 128.597333 0 0 0 501.333333 644.266667c3.285333-8.789333 5.546667-17.493333 7.168-25.642667H938.666667V640a128 128 0 0 1-128 128H405.333333a128 128 0 0 1-128-128v-565.333333a42.666667 42.666667 0 1 0-85.333333 0V640zM874.666667 579.541333a42.666667 42.666667 0 0 0 42.666666-42.666666V320a42.666667 42.666667 0 1 0-85.333333 0V536.874667a42.666667 42.666667 0 0 0 42.666667 42.666666zM0 213.333333a42.666667 42.666667 0 0 0 42.666667 42.666667h78.208a42.666667 42.666667 0 1 0 0-85.333333H85.333333v-85.333334a128 128 0 0 1 128-128h341.333334a42.666667 42.666667 0 1 0 0-85.333333H213.333333a213.333333 213.333333 0 0 0-213.333333 213.333333v128zM341.333333 384a42.666667 42.666667 0 0 0 42.666667 42.666667h341.333333a42.666667 42.666667 0 1 0 0-85.333334H384a42.666667 42.666667 0 0 0-42.666667 42.666667zM341.333333 213.333333a42.666667 42.666667 0 0 0 42.666667 42.666667h156.458667a42.666667 42.666667 0 0 0 0-85.333333H384a42.666667 42.666667 0 0 0-42.666667 42.666666zM810.666667 213.333333a42.666667 42.666667 0 0 0 42.666666-42.666666v-85.333334h85.333334a42.666667 42.666667 0 0 0 0-85.333333h-85.333334v-85.333333a42.666667 42.666667 0 0 0-85.333333 0v85.333333h-85.333333a42.666667 42.666667 0 0 0 0 85.333333h85.333333v85.333334a42.666667 42.666667 0 0 0 42.666667 42.666666z"  horiz-adv-x="1024" />

    
    <glyph glyph-name="download" unicode="&#59156;" d="M85.333333 310.186667a42.666667 42.666667 0 0 0 42.666667-42.666667v-185.642667a42.666667 42.666667 0 0 1 42.666667-42.666666h682.666666a42.666667 42.666667 0 0 1 42.666667 42.666666V267.52a42.666667 42.666667 0 1 0 85.333333 0v-185.642667a128 128 0 0 0-128-128H170.666667a128 128 0 0 0-128 128V267.52a42.666667 42.666667 0 0 0 42.666666 42.666667zM341.333333 768a42.666667 42.666667 0 0 0 42.666667 42.666667h256a42.666667 42.666667 0 0 0 42.666667-42.666667v-247.168h128a42.666667 42.666667 0 0 0 28.330666-74.581333l-298.666666-264.832a42.666667 42.666667 0 0 0-56.618667 0l-298.666667 264.832A42.666667 42.666667 0 0 0 213.333333 520.832h128V768z m85.333334-42.666667v-247.168a42.666667 42.666667 0 0 0-42.666667-42.666666H325.76L512 270.378667l186.24 165.12H640a42.666667 42.666667 0 0 0-42.666667 42.666666V725.333333h-170.666666z"  horiz-adv-x="1024" />

    
    <glyph glyph-name="editFile" unicode="&#59157;" d="M170.616903 768.037322a42.654226 42.654226 0 0 1-42.654225-42.654225v-674.405965a42.654226 42.654226 0 0 1 42.654225-42.654226h91.280044a42.654226 42.654226 0 1 0 0-85.308452H170.616903a127.962678 127.962678 0 0 0-127.962677 127.962678V725.383097a127.962678 127.962678 0 0 0 127.962677 127.962677h554.163703a127.962678 127.962678 0 0 0 127.962677-127.962677v-93.96726a42.654226 42.654226 0 1 0-85.308451 0V725.383097a42.654226 42.654226 0 0 1-42.654226 42.654225H170.616903zM213.271129 554.766193a42.654226 42.654226 0 0 0 42.654226 42.654226h310.650727a42.654226 42.654226 0 1 0 0-85.308452H255.925355a42.654226 42.654226 0 0 0-42.654226 42.654226zM213.271129 384.14929a42.654226 42.654226 0 0 0 42.654226 42.654226h134.019578a42.654226 42.654226 0 1 0 0-85.308452H255.925355a42.654226 42.654226 0 0 0-42.654226 42.654226zM796.013163 513.818136a42.057067 42.057067 0 0 0 59.971841 0l155.048111-156.924897a43.166077 43.166077 0 0 0-0.255925-60.910234l-413.447411-411.61328a42.142375 42.142375 0 0 0-29.729996-12.327071H412.551672A42.654226 42.654226 0 0 0 370.153372-85.047195v150.057567c0 11.388678 4.436039 22.30816 12.369725 30.369809l209.986754 212.460699a42.057067 42.057067 0 0 0 59.971842 0c16.54984-16.720457 16.54984-43.933853 0-60.654309l-197.53172-199.920357v-89.403257H550.239513l370.579915 368.959053-94.820344 95.972008-43.422002-43.933852 36.512017-36.93856c16.54984-16.763111 16.54984-43.933853 0-60.654309a42.057067 42.057067 0 0 0-59.971842 0l-66.455283 67.265714a43.294039 43.294039 0 0 0 0 60.696964l103.351189 104.588161z"  horiz-adv-x="1024" />

    
    <glyph glyph-name="fullScreen" unicode="&#59158;" d="M42.666667 640a213.333333 213.333333 0 0 0 213.333333 213.333333h512a213.333333 213.333333 0 0 0 213.333333-213.333333v-512a213.333333 213.333333 0 0 0-213.333333-213.333333H256a213.333333 213.333333 0 0 0-213.333333 213.333333V640z m213.333333 128a128 128 0 0 1-128-128v-512a128 128 0 0 1 128-128h512a128 128 0 0 1 128 128V640a128 128 0 0 1-128 128H256zM533.333333 640a42.666667 42.666667 0 0 0 42.666667 42.666667H682.666667a128 128 0 0 0 128-128v-106.666667a42.666667 42.666667 0 1 0-85.333334 0V554.666667a42.666667 42.666667 0 0 1-42.666666 42.666666h-106.666667a42.666667 42.666667 0 0 0-42.666667 42.666667zM256 362.666667a42.666667 42.666667 0 0 0 42.666667-42.666667V213.333333a42.666667 42.666667 0 0 1 42.666666-42.666666h106.666667a42.666667 42.666667 0 1 0 0-85.333334H341.333333a128 128 0 0 0-128 128v106.666667a42.666667 42.666667 0 0 0 42.666667 42.666667z"  horiz-adv-x="1024" />

    
    <glyph glyph-name="heart" unicode="&#59159;" d="M866.133333 695.466667c-98.133333 98.133333-256 98.133333-354.133333 0-98.133333 98.133333-256 98.133333-354.133333 0-98.133333-98.133333-98.133333-256 0-354.133334l324.266666-324.266666c8.533333-8.533333 17.066667-12.8 29.866667-12.8s21.333333 4.266667 29.866667 12.8l324.266666 324.266666c98.133333 93.866667 98.133333 256 0 354.133334z m-59.733333-298.666667L512 102.39999999999998l-294.4 294.4c-64 64-64 170.666667 0 234.666667s170.666667 64 234.666667 0L597.333333 486.4c17.066667-17.066667 42.666667-17.066667 59.733334 0 17.066667 17.066667 17.066667 42.666667 0 59.733333l-89.6 89.6c64 64 166.4 64 234.666666 0 68.266667-68.266667 68.266667-170.666667 4.266667-238.933333z"  horiz-adv-x="1024" />

    
    <glyph glyph-name="filter" unicode="&#59160;" d="M645.376-36.266667a42.666667 42.666667 0 0 1 20.138667 36.266667v219.434667a42.666667 42.666667 0 1 1-85.333334 0v-150.698667l-136.362666 67.456v302.677333a42.666667 42.666667 0 0 1-9.813334 27.221334L218.794667 725.333333h586.325333l-215.125333-259.242666a42.666667 42.666667 0 0 1-9.813334-27.221334V384a42.666667 42.666667 0 1 1 85.333334 0v39.466667l263.253333 317.269333A42.666667 42.666667 0 0 1 896 810.666667H128a42.666667 42.666667 0 0 1-32.853333-69.930667l263.338666-317.269333v-313.770667a42.666667 42.666667 0 0 1 23.722667-38.229333l221.738667-109.696a42.666667 42.666667 0 0 1 41.386666 1.962666z m101.12 255.701334a42.666667 42.666667 0 0 1 42.666667-42.666667H896a42.666667 42.666667 0 1 1 0 85.333333h-106.88a42.666667 42.666667 0 0 1-42.666667-42.666666z m0 164.565333a42.666667 42.666667 0 0 1 42.666667-42.666667H896a42.666667 42.666667 0 1 1 0 85.333334h-106.88a42.666667 42.666667 0 0 1-42.666667-42.666667z"  horiz-adv-x="1024" />

    
    <glyph glyph-name="gift" unicode="&#59161;" d="M42.666667 512a128 128 0 0 0 128 128h682.666666a128 128 0 0 0 128-128v-42.666667a128 128 0 0 0-128-128H170.666667a128 128 0 0 0-128 128V512z m128 42.666667a42.666667 42.666667 0 0 1-42.666667-42.666667v-42.666667a42.666667 42.666667 0 0 1 42.666667-42.666666h682.666666a42.666667 42.666667 0 0 1 42.666667 42.666666V512a42.666667 42.666667 0 0 1-42.666667 42.666667H170.666667zM128 384a42.666667 42.666667 0 0 0 42.666667 42.666667h682.666666a42.666667 42.666667 0 0 0 42.666667-42.666667v-298.666667a128 128 0 0 0-128-128H256a128 128 0 0 0-128 128v298.666667z m85.333333-42.666667v-256a42.666667 42.666667 0 0 1 42.666667-42.666666h512a42.666667 42.666667 0 0 1 42.666667 42.666666v256H213.333333zM626.346667 835.114667a42.666667 42.666667 0 0 0 56.149333 12.586666l149.333333-85.333333a42.666667 42.666667 0 0 0 20.693334-45.397333c-6.485333-32.384-35.754667-69.674667-81.237334-98.986667-47.616-30.72-117.248-55.893333-213.973333-61.952A43.093333 43.093333 0 0 0 554.666667 555.946667V42.666667a42.666667 42.666667 0 1 0-85.333334 0V597.333333a42.666667 42.666667 0 0 0 7.68 24.448l149.333334 213.333334z m-28.16-189.056c59.008 8.874667 99.925333 26.24 126.848 43.605333 10.922667 7.082667 19.498667 14.08 26.154666 20.522667l-77.226666 44.117333-75.776-108.245333zM397.653333 835.114667a42.666667 42.666667 0 0 1-56.149333 12.586666l-149.333333-85.333333a42.666667 42.666667 0 0 1-20.693334-45.397333c3.712-18.517333 14.634667-37.461333 29.056-54.357334 15.061333-17.621333 35.968-35.456 63.274667-51.456C318.549333 579.157333 399.189333 554.666667 512 554.666667a42.666667 42.666667 0 0 1 0 85.333333c-100.522667 0-165.674667 21.76-205.141333 44.8a176.213333 176.213333 0 0 0-34.048 25.386667l77.226666 44.117333 41.685334-59.52a42.666667 42.666667 0 1 1 69.888 48.938667l-64 91.392z"  horiz-adv-x="1024" />

    
    <glyph glyph-name="flame" unicode="&#59162;" d="M667.52 821.930667a42.666667 42.666667 0 0 0 14.634667-39.082667c-20.522667-133.546667-9.898667-223.616 4.48-278.741333 7.210667-27.605333 15.402667-46.72 21.333333-58.325334a136.106667 136.106667 0 0 1 8.362667-14.250666 42.666667 42.666667 0 0 0-66.986667-52.864L682.666667 405.333333c-33.28-26.666667-33.322667-26.624-33.365334-26.581333l-0.128 0.128-0.213333 0.256-0.469333 0.682667a83.925333 83.925333 0 0 0-5.162667 7.381333 219.904 219.904 0 0 0-11.306667 19.712 372.906667 372.906667 0 0 0-27.989333 75.648c-14.336 55.082667-24.149333 133.12-15.232 238.037333-69.845333-39.168-104.533333-92.288-122.325333-138.581333a288.938667 288.938667 0 0 1-17.962667-78.336 242.730667 242.730667 0 0 1-0.682667-30.549333 42.581333 42.581333 0 0 0-52.864-45.226667L405.333333 469.333333l-10.410666-41.386666h-0.042667l-0.128 0.042666-0.256 0.085334-0.64 0.170666a74.666667 74.666667 0 0 0-6.357333 2.005334 141.482667 141.482667 0 0 0-14.293334 5.973333 180.48 180.48 0 0 0-41.557333 27.904A216.618667 216.618667 0 0 0 279.338667 535.893333c-33.152-44.544-50.261333-92.458667-58.88-133.930666a388.522667 388.522667 0 0 1-8.106667-72.021334 297.685333 297.685333 0 0 1 0.64-25.557333l0.085333-1.024v-0.128 0.085333A42.282667 42.282667 0 0 0 213.333333 298.666667a298.666667 298.666667 0 1 1 597.333334 0c0 35.114667-11.008 59.733333-25.045334 91.136-2.858667 6.357333-5.802667 13.013333-8.832 20.053333-8.576 20.010667-17.28 43.477333-19.925333 70.698667-2.688 27.904 1.152 57.386667 14.208 89.941333a42.666667 42.666667 0 0 0 79.232-31.658667c-8.32-20.778667-9.813333-36.650667-8.533333-50.048 1.408-14.08 6.016-27.989333 13.44-45.312 2.090667-4.821333 4.437333-9.984 6.912-15.445333 14.421333-31.744 33.877333-74.410667 33.877333-129.365333a384 384 0 0 0-768.042667-1.365334 383.018667 383.018667 0 0 0-0.938666 34.090667c0.341333 22.101333 2.56 52.821333 9.898666 87.978667 14.592 70.186667 50.133333 159.786667 133.973334 231.68a42.666667 42.666667 0 0 0 69.845333-25.386667c5.802667-34.645333 16.725333-58.752 28.202667-75.562667 3.712 19.029333 9.344 40.277333 17.92 62.549334 30.72 79.872 98.218667 170.026667 239.658666 217.173333a42.666667 42.666667 0 0 0 40.96-7.893333zM447.829333 473.173333v0z"  horiz-adv-x="1024" />

    
    <glyph glyph-name="game" unicode="&#59163;" d="M378.496 682.666667C217.216 682.666667 85.333333 549.589333 85.333333 384s131.925333-298.666667 293.162667-298.666667a12.16 12.16 0 0 1 11.52 8.32l2.602667 7.893334a142.08 142.08 0 0 0 134.954666 97.578666h40.746667a42.666667 42.666667 0 1 0 0-85.333333h-40.746667a56.746667 56.746667 0 0 1-53.888-38.997333l-2.602666-7.850667A97.493333 97.493333 0 0 0 378.453333 0C168.832 0 0 172.586667 0 384s168.832 384 378.496 384h267.008C855.210667 768 1024 595.413333 1024 384s-168.789333-384-378.496-384a42.666667 42.666667 0 1 0 0 85.333333C806.784 85.333333 938.666667 218.410667 938.666667 384s-131.925333 298.666667-293.162667 298.666667H378.453333zM327.125333 536.362667a42.666667 42.666667 0 0 0 42.666667-42.666667V426.666667h66.346667a42.666667 42.666667 0 1 0 0-85.333334H369.792v-67.029333a42.666667 42.666667 0 0 0-85.333333 0V341.333333H218.026667a42.666667 42.666667 0 0 0 0 85.333334h66.389333V493.696a42.666667 42.666667 0 0 0 42.666667 42.666667zM708.736 536.362667a42.666667 42.666667 0 0 0 42.666667-42.666667V469.333333a42.666667 42.666667 0 1 0-85.333334 0v24.362667a42.666667 42.666667 0 0 0 42.666667 42.666667z m0-195.029334a42.666667 42.666667 0 0 0 42.666667-42.666666v-24.362667a42.666667 42.666667 0 0 0-85.333334 0V298.666667a42.666667 42.666667 0 0 0 42.666667 42.666666z"  horiz-adv-x="1024" />

    
    <glyph glyph-name="home" unicode="&#59164;" d="M485.333333 843.946667a42.666667 42.666667 0 0 0 53.333334 0l298.282666-238.592 170.282667-130.133334a42.666667 42.666667 0 0 0-51.797333-67.797333l-170.666667 130.432-0.768 0.597333L512 756.053333l-277.333333-221.866666v-523.52h170.666666a42.666667 42.666667 0 1 0 0-85.333334h-213.333333a42.666667 42.666667 0 0 0-42.666667 42.666667V461.909333L70.4 394.24a42.666667 42.666667 0 0 0-55.466667 64.768l149.333334 128a42.666667 42.666667 0 0 0 1.066666 0.938667l320 256zM832 384a42.666667 42.666667 0 0 0 42.666667-42.666667v-373.333333a42.666667 42.666667 0 0 0-42.666667-42.666667H597.333333a42.666667 42.666667 0 1 0 0 85.333334h192V341.333333a42.666667 42.666667 0 0 0 42.666667 42.666667zM490.666667 213.333333a42.666667 42.666667 0 0 1-42.666667-42.666666v-160h128V170.666667a42.666667 42.666667 0 0 1-42.666667 42.666666h-42.666666z m-128-42.666666a128 128 0 0 0 128 128h42.666666a128 128 0 0 0 128-128v-202.666667a42.666667 42.666667 0 0 0-42.666666-42.666667h-213.333334a42.666667 42.666667 0 0 0-42.666666 42.666667V170.666667z"  horiz-adv-x="1024" />

    
    <glyph glyph-name="history" unicode="&#59165;" d="M896 448c-25.6 0-42.666667-17.066667-42.666667-42.666667V42.66666699999996c0-25.6-17.066667-42.666667-42.666666-42.666667H213.333333c-25.6 0-42.666667 17.066667-42.666666 42.666667V725.333333c0 25.6 17.066667 42.666667 42.666666 42.666667h384v-213.333333c0-25.6 17.066667-42.666667 42.666667-42.666667h256c17.066667 0 34.133333 8.533333 38.4 25.6s4.266667 34.133333-8.533333 46.933333l-256 256c-8.533333 8.533333-17.066667 12.8-29.866667 12.8H213.333333C140.8 853.333333 85.333333 797.866667 85.333333 725.333333v-682.666666c0-72.533333 55.466667-128 128-128h597.333334c72.533333 0 128 55.466667 128 128v362.666666c0 25.6-17.066667 42.666667-42.666667 42.666667z m-213.333333 260.266667L793.6 597.333333H682.666667V708.266667zM256 426.666667c0 25.6 17.066667 42.666667 42.666667 42.666666h213.333333c25.6 0 42.666667-17.066667 42.666667-42.666666s-17.066667-42.666667-42.666667-42.666667H298.666667c-25.6 0-42.666667 17.066667-42.666667 42.666667zM256 256c0 25.6 17.066667 42.666667 42.666667 42.666667h426.666666c25.6 0 42.666667-17.066667 42.666667-42.666667s-17.066667-42.666667-42.666667-42.666667H298.666667c-25.6 0-42.666667 17.066667-42.666667 42.666667z"  horiz-adv-x="1024" />

    
    <glyph glyph-name="iceCream" unicode="&#59166;" d="M128 512a384 384 0 0 0 768 0v-341.333333a128 128 0 0 0-128-128H256a128 128 0 0 0-128 128V512z m384 298.666667a298.666667 298.666667 0 0 1-298.666667-298.666667v-341.333333a42.666667 42.666667 0 0 1 42.666667-42.666667h512a42.666667 42.666667 0 0 1 42.666667 42.666667V512a298.666667 298.666667 0 0 1-298.666667 298.666667zM464.64 719.146667a42.666667 42.666667 0 0 0-18.56-57.386667A192.597333 192.597333 0 0 1 348.586667 543.061333a42.666667 42.666667 0 0 0-82.090667 23.210667 277.930667 277.930667 0 0 0 140.8 171.477333 42.666667 42.666667 0 0 0 57.386667-18.602666zM384 426.666667a128 128 0 0 0 256 0v-426.666667a128 128 0 1 0-256 0V426.666667z m128 42.666666a42.666667 42.666667 0 0 1-42.666667-42.666666v-426.666667a42.666667 42.666667 0 1 1 85.333334 0V426.666667a42.666667 42.666667 0 0 1-42.666667 42.666666z"  horiz-adv-x="1024" />

    
    <glyph glyph-name="home1" unicode="&#59167;" d="M490.347569 890.112245a42.664889 42.664889 0 0 0 43.262197 0l362.992876-213.495104 106.662222-63.997333a42.664889 42.664889 0 1 0-43.944836-73.170285L852.87113 603.318862 511.978668 803.84384 191.992 615.60635v-600.294988c13.226116-6.143744 33.065289-14.292738 59.60285-22.527061 56.104329-17.44994 142.500729-35.411858 260.383818-35.411858s204.279488 17.961918 260.383817 35.411858a490.134244 490.134244 0 0 1 59.60285 22.484396V448.018666a42.664889 42.664889 0 1 0 85.329778 0v-458.647556a42.664889 42.664889 0 0 0-19.881839-36.051832l-22.78305 36.051832 22.78305-36.051832-0.127994-0.127994-0.213325-0.08533-0.511978-0.341319a204.066164 204.066164 0 0 0-6.911712-3.967835 333.767426 333.767426 0 0 0-19.156535-9.68493c-16.553977-7.807675-40.830299-17.876588-72.828966-27.817507-64.039998-19.881838-158.969376-39.251698-285.684096-39.251698-126.71472 0-221.644098 19.36986-285.684097 39.251698a567.656348 567.656348 0 0 0-72.828965 27.817507 334.32207 334.32207 0 0 0-26.025583 13.652765l-0.554643 0.341319-0.213325 0.127995-0.127994 0.042664 22.78305 36.094497-22.78305-36.094497a42.750219 42.750219 0 0 0-19.881839 36.094497V564.664472l-42.024915-25.214949a42.664889 42.664889 0 1 0-43.944836 73.12762l107.003542 64.210658 362.651556 213.324444zM341.319112 362.688888a127.994667 127.994667 0 0 0 127.994667 127.994667h85.329778a127.994667 127.994667 0 0 0 127.994666-127.994667V298.691555a127.994667 127.994667 0 0 0-127.994666-127.994667h-85.329778a127.994667 127.994667 0 0 0-127.994667 127.994667v63.997333z m127.994667 42.664889a42.664889 42.664889 0 0 1-42.664889-42.664889V298.691555a42.664889 42.664889 0 0 1 42.664889-42.664889h85.329778a42.664889 42.664889 0 0 1 42.664888 42.664889v63.997333a42.664889 42.664889 0 0 1-42.664888 42.664889h-85.329778z"  horiz-adv-x="1024" />

    
    <glyph glyph-name="left" unicode="&#59168;" d="M198.656 313.429333a85.333333 85.333333 0 0 0 0 141.141334l425.386667 288.981333c56.661333 38.485333 133.290667-2.133333 133.290666-70.613333v-577.877334c0-68.48-76.629333-109.056-133.290666-70.613333l-425.386667 288.981333zM246.613333 384l425.386667-288.938667V672.938667L246.613333 384z"  horiz-adv-x="1024" />

    
    <glyph glyph-name="lightning" unicode="&#59169;" d="M221.013333 710.101333A213.333333 213.333333 0 0 0 422.485333 853.333333H874.24a42.666667 42.666667 0 0 0 35.968-65.664l-208.170667-325.461333h137.898667a42.666667 42.666667 0 0 0 31.189333-71.765333l-381.098666-408.064A213.333333 213.333333 0 0 0 334.122667-85.333333H166.485333a42.666667 42.666667 0 0 0-39.893333 57.770666l112.810667 297.813334H128a42.666667 42.666667 0 0 0-40.277333 56.661333l133.290666 383.146667z m50.645334-354.56l29.738666 79.061334a42.666667 42.666667 0 1 0 79.872-30.08l-40.149333-106.666667L228.266667 0h105.856a128 128 0 0 1 93.568 40.618667l314.026666 336.256h-117.632a42.666667 42.666667 0 0 0-35.925333 65.706666L796.330667 768H422.485333A128 128 0 0 1 301.653333 682.069333l-113.578666-326.528h83.626666z"  horiz-adv-x="1024" />

    
    <glyph glyph-name="like" unicode="&#59170;" d="M85.333333 490.666667a128 128 0 0 0 128 128h42.666667a128 128 0 0 0 128-128V42.666667a128 128 0 0 0-128-128H213.333333a128 128 0 0 0-128 128V490.666667z m128 42.666666a42.666667 42.666667 0 0 1-42.666666-42.666666V42.666667a42.666667 42.666667 0 0 1 42.666666-42.666667h42.666667a42.666667 42.666667 0 0 1 42.666667 42.666667V490.666667a42.666667 42.666667 0 0 1-42.666667 42.666666H213.333333zM625.92 733.184c-20.48-27.52-39.381333-65.322667-60.586667-107.946667C521.770667 537.173333 446.464 482.773333 384 450.773333v-389.418666a42.666667 42.666667 0 1 0-85.333333 0V477.653333a42.666667 42.666667 0 0 0 25.216 38.954667c57.813333 25.898667 127.914667 71.68 165.034666 146.517333l1.066667 2.133334c19.84 40.064 41.898667 84.522667 67.413333 118.826666 25.386667 34.133333 62.293333 69.248 114.261334 69.248 58.965333 0 106.794667-54.186667 119.338666-120.618666 10.154667-53.632-0.128-118.997333-40.106666-191.573334h57.557333c114.688 0 196.693333-110.805333 163.242667-220.501333l-87.04-285.141333A170.666667 170.666667 0 0 0 721.408-85.333333h-194.261333c-27.605333 0-51.754667 15.744-63.573334 24.277333a215.168 215.168 0 0 0-23.850666 20.053333l-0.469334 0.426667-0.170666 0.213333-0.085334 0.042667v0.042667L469.333333-10.24l-30.378666-29.994667a42.666667 42.666667 0 0 0 60.672 60.032l0.042666-0.042666m0 0l0.597334-0.597334 2.901333-2.645333c2.602667-2.346667 6.229333-5.376 10.325333-8.362667 4.224-2.986667 8.149333-5.418667 11.434667-6.912a21.077333 21.077333 0 0 1 3.114667-1.194666h193.365333a85.333333 85.333333 0 0 1 81.621333 60.416l87.04 285.141333a85.333333 85.333333 0 0 1-81.621333 110.250667h-136.789333a42.666667 42.666667 0 0 0-33.792 68.693333c67.285333 87.253333 76.672 153.173333 69.290666 192.426667C699.050667 759.722667 674.645333 768 671.658667 768c-9.941333 0-24.661333-6.485333-45.781334-34.816"  horiz-adv-x="1024" />

    
    <glyph glyph-name="flower" unicode="&#59171;" d="M379.306667 209.749333c-84.608 40.490667-181.845333 48.085333-252.586667 45.909334a42.666667 42.666667 0 0 1-41.386667-42.666667c0-104.277333 30.72-184.661333 108.586667-235.221333C266.837333-69.546667 373.930667-85.333333 512-85.333333a42.666667 42.666667 0 0 1 42.368 47.573333c-15.018667 129.322667-87.978667 205.866667-175.061333 247.509333z m80.341333-208.853333c-106.112 3.84-175.573333 20.053333-219.264 48.469333-37.376 24.234667-60.373333 60.586667-67.413333 120.832 55.253333-2.218667 116.906667-12.245333 169.514666-37.418666 52.778667-25.258667 96.768-65.536 117.162667-131.84zM644.693333 209.749333c84.608 40.448 181.845333 48.085333 252.586667 45.909334a42.666667 42.666667 0 0 0 41.386667-42.666667c0-104.618667-30.634667-185.045333-108.629334-235.52C757.12-69.802667 650.026667-85.333333 512-85.333333a42.666667 42.666667 0 0 0-42.368 47.573333c15.018667 129.322667 87.978667 205.866667 175.061333 247.509333z m-80.341333-208.853333c106.197333 3.84 175.616 19.882667 219.306667 48.213333 37.376 24.149333 60.373333 60.501333 67.413333 121.088-55.253333-2.218667-116.906667-12.245333-169.557333-37.418666-52.778667-25.258667-96.768-65.536-117.162667-131.882667zM515.456 852.096a42.666667 42.666667 0 0 0 23.466667-0.896c65.152-21.418667 96.426667-33.749333 147.114666-69.76a42.666667 42.666667 0 1 0-49.408-69.546667c-38.058667 27.008-59.861333 36.693333-112.768 54.4-34.944-8.789333-56.448-15.445333-74.624-22.826666-20.010667-8.106667-37.12-17.493333-65.28-33.749334A42.666667 42.666667 0 1 0 341.333333 783.616c28.16 16.213333 49.792 28.373333 75.861334 38.954667 25.941333 10.496 55.04 18.986667 98.261333 29.525333zM180.053333 816.042667a42.666667 42.666667 0 0 0 42.624 14.933333c98.56-22.101333 208.170667-51.84 291.712-124.672 88.064 61.525333 196.608 103.381333 315.392 119.125333a42.666667 42.666667 0 0 0 45.525334-57.386666c-29.482667-78.08-31.872-108.586667-27.264-134.698667 2.602667-14.805333 7.722667-29.909333 16.042666-53.504l0.554667-1.578667c7.978667-22.698667 17.92-50.986667 27.989333-88.490666 13.824-51.669333 12.373333-99.797333-2.986666-142.805334-15.274667-42.837333-43.221333-77.866667-77.909334-105.429333-68.522667-54.442667-166.144-82.218667-262.570666-87.338667-96.725333-5.12-198.826667 12.117333-278.485334 54.826667-80.64 43.221333-142.165333 115.456-142.165333 217.642667 0 56.533333 9.258667 98.048 22.442667 131.712 9.429333 24.149333 21.546667 45.056 30.72 60.842666 2.816 4.906667 5.376 9.301333 7.466666 13.184 9.301333 17.066667 13.824 29.44 13.653334 46.250667-0.256 18.346667-6.4 46.208-28.074667 92.586667a42.666667 42.666667 0 0 0 5.333333 44.8z m266.922667-164.650667C401.066667 687.573333 344.32 710.570667 281.344 728.405333c4.352-17.408 6.528-33.493333 6.741333-48.64 0.469333-37.376-11.264-64.768-23.978666-88.149333-3.925333-7.253333-7.68-13.696-11.221334-19.84A302.933333 302.933333 0 0 1 230.4 527.274667c-9.045333-23.125333-16.554667-54.016-16.554667-100.608 0-61.781333 35.370667-109.312 97.152-142.464 62.72-33.621333 148.48-49.322667 233.642667-44.8 85.504 4.565333 163.882667 29.141333 214.016 68.949333 24.576 19.541333 41.642667 42.069333 50.602667 67.242667 8.874667 24.917333 10.837333 55.168 0.938666 92.074666a1053.610667 1053.610667 0 0 1-26.197333 82.688l-0.682667 1.877334c-7.722667 21.973333-15.36 43.605333-19.328 66.346666-5.888 33.408-3.541333 66.389333 8.192 109.568-90.538667-21.461333-170.88-60.245333-234.837333-111.104-69.76-55.466667-105.344-111.530667-110.08-192.853333a42.666667 42.666667 0 1 0-85.205333 4.992c5.546667 93.866667 43.306667 163.072 104.917333 222.208z"  horiz-adv-x="1024" />

    
    <glyph glyph-name="link" unicode="&#59172;" d="M472.064 661.589333a184.874667 184.874667 0 0 1-261.461333-261.461333l86.4-86.4a42.666667 42.666667 0 1 0-60.330667-60.373333l-86.4 86.442666a270.208 270.208 0 0 0 382.122667 382.122667l-29.525334-29.525333 29.525334 29.525333 86.4-86.4A42.666667 42.666667 0 0 0 558.506667 575.146667l-86.4 86.442666zM710.016 483.968a42.666667 42.666667 0 0 0 60.330667 0l87.893333-87.893333a270.208 270.208 0 1 0-382.122667-382.165334l-87.893333 87.893334a42.666667 42.666667 0 1 0 60.330667 60.373333l87.893333-87.893333a184.874667 184.874667 0 1 1 261.461333 261.418666l-87.893333 87.893334a42.666667 42.666667 0 0 0 0 60.373333zM388.266667 483.968a42.666667 42.666667 0 0 0 60.288 0l191.658666-191.658667a42.666667 42.666667 0 1 0-60.330666-60.373333L388.266667 423.594667a42.666667 42.666667 0 0 0 0 60.373333z"  horiz-adv-x="1024" />

    
    <glyph glyph-name="iceCream1" unicode="&#59173;" d="M452.949333 768C346.794667 768 256 675.2 256 554.666667a42.666667 42.666667 0 0 0-85.333333 0c0 162.261333 123.733333 298.666667 282.282666 298.666666 79.658667 0 151.168-34.901333 202.069334-90.069333a42.666667 42.666667 0 1 0-62.72-57.856C556.202667 744.490667 506.88 768 452.906667 768zM646.144 682.666667c-35.413333 0-67.029333-12.373333-90.538667-32.426667a42.666667 42.666667 0 0 0-55.466666 64.853333A223.744 223.744 0 0 0 646.144 768c119.253333 0 219.477333-90.368 219.477333-213.333333a42.666667 42.666667 0 0 0-42.666666-42.666667H469.333333a42.666667 42.666667 0 0 0 0 85.333333h303.701334c-17.792 50.304-66.730667 85.333333-126.890667 85.333334zM90.88 575.701333A42.666667 42.666667 0 0 0 128 597.333333h768a42.666667 42.666667 0 0 0 36.608-64.597333l-384-640a42.666667 42.666667 0 0 0-73.173333 0l-384 640a42.666667 42.666667 0 0 0-0.554667 42.965333zM203.349333 512L512-2.389333 820.650667 512H203.349333zM214.186667 349.696a42.666667 42.666667 0 0 0 50.176 33.493333l426.666666-85.333333a42.666667 42.666667 0 1 0-16.725333-83.712l-426.666667 85.333333a42.666667 42.666667 0 0 0-33.493333 50.218667z"  horiz-adv-x="1024" />

    
    <glyph glyph-name="king" unicode="&#59174;" d="M512 810.666667a42.666667 42.666667 0 0 0 32.768-15.36l188.8-226.56 160.085333 106.752a42.666667 42.666667 0 0 0 65.365334-44.544l-106.666667-490.666667A42.666667 42.666667 0 0 0 810.666667 106.666667H213.333333a42.666667 42.666667 0 0 0-41.685333 33.621333l-106.666667 490.666667a42.666667 42.666667 0 0 0 65.365334 44.544L290.432 568.746667l188.8 226.56A42.666667 42.666667 0 0 0 512 810.666667z m0-109.312L331.434667 484.693333a42.666667 42.666667 0 0 0-56.448-8.192L170.752 546.005333 247.722667 192h528.554666l76.970667 354.005333-104.234667-69.546666a42.666667 42.666667 0 0 0-56.448 8.234666L512 701.354667zM448 298.666667a42.666667 42.666667 0 0 0 42.666667 42.666666h42.666666a42.666667 42.666667 0 0 0 0-85.333333h-42.666666a42.666667 42.666667 0 0 0-42.666667 42.666667zM170.666667 0a42.666667 42.666667 0 0 0 42.666666 42.666667h597.333334a42.666667 42.666667 0 1 0 0-85.333334H213.333333a42.666667 42.666667 0 0 0-42.666666 42.666667z"  horiz-adv-x="1024" />

    
    <glyph glyph-name="info" unicode="&#59175;" d="M512 768a384 384 0 1 1 0-768 384 384 0 0 1 0 768zM42.666667 384C42.666667 643.2 252.8 853.333333 512 853.333333s469.333333-210.133333 469.333333-469.333333-210.133333-469.333333-469.333333-469.333333S42.666667 124.8 42.666667 384zM561.621333 501.248a42.666667 42.666667 0 0 0 14.08-37.205333l-34.986666-279.552 24.917333 6.229333a42.666667 42.666667 0 1 0 20.736-82.773333l-85.333333-21.333334a42.666667 42.666667 0 0 0-52.693334 46.677334l34.944 279.552-24.917333-6.229334a42.666667 42.666667 0 0 0-20.736 82.773334l85.333333 21.333333a42.666667 42.666667 0 0 0 38.656-9.472zM448 618.666667a42.666667 42.666667 0 0 0 42.666667 42.666666h42.666666a42.666667 42.666667 0 0 0 0-85.333333h-42.666666a42.666667 42.666667 0 0 0-42.666667 42.666667z"  horiz-adv-x="1024" />

    
    <glyph glyph-name="list" unicode="&#59176;" d="M810.666667 768h-140.8c-4.266667 12.8-8.533333 21.333333-21.333334 34.133333-25.6 34.133333-68.266667 72.533333-140.8 72.533334-72.533333 0-115.2-38.4-140.8-72.533334-4.266667-12.8-8.533333-21.333333-12.8-34.133333H213.333333C140.8 768 85.333333 712.533333 85.333333 640v-597.333333c0-72.533333 55.466667-128 128-128h597.333334c72.533333 0 128 55.466667 128 128V640c0 72.533333-55.466667 128-128 128z m0-768H213.333333c-25.6 0-42.666667 17.066667-42.666666 42.666667V640c0 25.6 17.066667 42.666667 42.666666 42.666667h170.666667c21.333333 0 38.4 12.8 42.666667 34.133333 0 0 8.533333 29.866667 17.066666 38.4 12.8 17.066667 34.133333 34.133333 68.266667 34.133333s55.466667-17.066667 68.266667-34.133333c8.533333-8.533333 17.066667-38.4 17.066666-38.4 4.266667-21.333333 21.333333-34.133333 42.666667-34.133333h170.666667c25.6 0 42.666667-17.066667 42.666666-42.666667v-597.333333c0-25.6-17.066667-42.666667-42.666666-42.666667zM512 384H298.666667c-25.6 0-42.666667 17.066667-42.666667 42.666667s17.066667 42.666667 42.666667 42.666666h213.333333c25.6 0 42.666667-17.066667 42.666667-42.666666s-17.066667-42.666667-42.666667-42.666667zM725.333333 213.33333300000004H298.666667c-25.6 0-42.666667 17.066667-42.666667 42.666667s17.066667 42.666667 42.666667 42.666667h426.666666c25.6 0 42.666667-17.066667 42.666667-42.666667s-17.066667-42.666667-42.666667-42.666667zM512 618.666667c-25.6 0-42.666667 17.066667-42.666667 42.666666V682.666667c0 25.6 17.066667 42.666667 42.666667 42.666666s42.666667-17.066667 42.666667-42.666666v-21.333334c0-25.6-17.066667-42.666667-42.666667-42.666666z"  horiz-adv-x="1024" />

    
    <glyph glyph-name="list1" unicode="&#59177;" d="M192 640a213.333333 213.333333 0 0 0 213.333333 213.333333H810.666667a213.333333 213.333333 0 0 0 213.333333-213.333333v-64a42.666667 42.666667 0 0 0-42.666667-42.666667H469.333333a42.666667 42.666667 0 0 0-42.666666 42.666667c0 10.581333-0.256 24.96-5.290667 38.357333-4.309333 11.52-11.861333 21.930667-29.525333 27.818667a42.666667 42.666667 0 1 0 26.965333 80.981333A128.597333 128.597333 0 0 0 501.333333 644.266667c3.285333-8.789333 5.546667-17.493333 7.168-25.642667H938.666667V640a128 128 0 0 1-128 128H405.333333a128 128 0 0 1-128-128v-565.333333a42.666667 42.666667 0 1 0-85.333333 0V640zM874.666667 579.541333a42.666667 42.666667 0 0 0 42.666666-42.666666V85.333333a213.333333 213.333333 0 0 0-213.333333-213.333333H213.333333a213.333333 213.333333 0 0 0-213.333333 213.333333v128a42.666667 42.666667 0 0 0 42.666667 42.666667h78.208a42.666667 42.666667 0 1 0 0-85.333333H85.333333v-85.333334a128 128 0 0 1 128-128h490.666667a128 128 0 0 1 128 128V536.874667a42.666667 42.666667 0 0 0 42.666667 42.666666zM341.333333 384a42.666667 42.666667 0 0 0 42.666667 42.666667h341.333333a42.666667 42.666667 0 1 0 0-85.333334H384a42.666667 42.666667 0 0 0-42.666667 42.666667zM341.333333 213.333333a42.666667 42.666667 0 0 0 42.666667 42.666667h156.458667a42.666667 42.666667 0 0 0 0-85.333333H384a42.666667 42.666667 0 0 0-42.666667 42.666666z"  horiz-adv-x="1024" />

    
    <glyph glyph-name="mail" unicode="&#59178;" d="M202.112 603.562667a42.666667 42.666667 0 0 0 60.117333 4.992L512 397.226667l249.770667 211.328a42.666667 42.666667 0 1 0 55.125333-65.109334l-277.333333-234.666666a42.666667 42.666667 0 0 0-55.125334 0l-277.333333 234.666666a42.666667 42.666667 0 0 0-4.992 60.117334zM42.666667 640a128 128 0 0 0 128 128h682.666666a128 128 0 0 0 128-128v-512a128 128 0 0 0-128-128H170.666667a128 128 0 0 0-128 128V640z m128 42.666667a42.666667 42.666667 0 0 1-42.666667-42.666667v-512a42.666667 42.666667 0 0 1 42.666667-42.666667h682.666666a42.666667 42.666667 0 0 1 42.666667 42.666667V640a42.666667 42.666667 0 0 1-42.666667 42.666667H170.666667z"  horiz-adv-x="1024" />

    
    <glyph glyph-name="lock" unicode="&#59179;" d="M512 320c-25.6 0-42.666667-17.066667-42.666667-42.666667v-132.266666c0-25.6 17.066667-42.666667 42.666667-42.666667s42.666667 17.066667 42.666667 42.666667v132.266666c0 25.6-21.333333 42.666667-42.666667 42.666667zM789.333333 516.266667V682.666667c0 93.866667-76.8 170.666667-170.666666 170.666666h-213.333334c-93.866667 0-170.666667-76.8-170.666666-170.666666v-153.6c0-4.266667-4.266667-8.533333-8.533334-8.533334C170.666667 516.266667 128 473.6 128 422.4V42.66666699999996c0-72.533333 55.466667-128 128-128h512c72.533333 0 128 55.466667 128 128v345.6c0 64-46.933333 115.2-106.666667 128zM810.666667 42.66666699999996c0-25.6-17.066667-42.666667-42.666667-42.666667H256c-25.6 0-42.666667 17.066667-42.666667 42.666667v379.733333c0 4.266667 4.266667 8.533333 8.533334 8.533333 51.2 0 93.866667 42.666667 93.866666 93.866667V682.666667c0 46.933333 38.4 85.333333 85.333334 85.333333h213.333333c46.933333 0 85.333333-38.4 85.333333-85.333333v-166.4H426.666667c-25.6 0-42.666667-17.066667-42.666667-42.666667s17.066667-42.666667 42.666667-42.666667h341.333333c25.6 0 42.666667-17.066667 42.666667-42.666666V42.66666699999996z"  horiz-adv-x="1024" />

    
    <glyph glyph-name="list2" unicode="&#59180;" d="M54.184296 789.721983C91.089348 830.552197 143.780376 853.3352 205.94299 853.3352h612.154552c48.893861 0 88.316136-13.226088 119.120121-35.155795 30.377338-21.631054 49.917816-49.960481 62.333273-76.583316 12.415457-26.537506 18.431194-52.477704 21.375065-71.463541A270.494833 270.494833 0 0 0 1023.955202 637.451312V636.342027h-42.6648 42.6648V-85.290402a42.6648 42.6648 0 0 0-57.853469-39.848923l-365.680001 139.513896-365.722667-139.513896A42.6648 42.6648 0 0 0 176.845596-85.290402V419.306189H42.6648a42.6648 42.6648 0 0 0-42.6648 42.6648V636.342027c0 58.621435 17.833886 113.06172 54.184296 153.379956z m122.6613-285.086194V636.299362h85.329601v-659.640474l323.015201 123.215942a42.6648 42.6648 0 0 0 30.420002 0L938.625602-23.341112V636.939334l-0.213324 4.010491a187.639791 187.639791 0 0 1-1.834587 16.041965 182.520015 182.520015 0 0 1-14.335372 48.424548c-7.935653 16.937926-19.071166 32.211924-34.558489 43.262107C872.580491 759.429975 850.736114 768.0056 818.054877 768.0056H205.900325c-40.275571 0-69.159641-14.207378-88.316136-35.411784C97.915716 710.749438 85.3296 678.025536 85.3296 636.299362v-131.706238h91.515996z m42.6648 174.371038a42.6648 42.6648 0 0 0 42.664801-42.6648h-85.329601a42.6648 42.6648 0 0 0 42.6648 42.6648z m147.790868-217.035838a42.6648 42.6648 0 0 0 42.6648 42.6648h367.258599a42.6648 42.6648 0 1 0 0-85.3296H410.008729a42.6648 42.6648 0 0 0-42.6648 42.6648z m0-174.328373a42.6648 42.6648 0 0 0 42.6648 42.6648h163.235525a42.6648 42.6648 0 1 0 0-85.3296H409.966064a42.6648 42.6648 0 0 0-42.6648 42.6648z"  horiz-adv-x="1024" />

    
    <glyph glyph-name="medal" unicode="&#59181;" d="M512 512a256 256 0 1 1 0-512 256 256 0 0 1 0 512z m-341.333333-256a341.333333 341.333333 0 1 0 682.666666 0 341.333333 341.333333 0 0 0-682.666666 0zM85.333333 725.333333a85.333333 85.333333 0 0 0 85.333334 85.333334h682.666666a85.333333 85.333333 0 0 0 85.333334-85.333334v-170.666666a42.666667 42.666667 0 0 0-17.92-34.773334l-120.021334-85.333333a42.666667 42.666667 0 1 0-49.450666 69.546667L853.333333 576.64V725.333333H170.666667v-148.650666l102.058666-72.576a42.666667 42.666667 0 0 0-49.450666-69.546667l-120.021334 85.333333A42.666667 42.666667 0 0 0 85.333333 554.666667V725.333333zM384 810.666667a42.666667 42.666667 0 0 0 42.666667-42.666667v-213.333333a42.666667 42.666667 0 0 0-85.333334 0V768a42.666667 42.666667 0 0 0 42.666667 42.666667zM640 810.666667a42.666667 42.666667 0 0 0 42.666667-42.666667v-213.333333a42.666667 42.666667 0 0 0-85.333334 0V768a42.666667 42.666667 0 0 0 42.666667 42.666667zM512 341.333333a85.333333 85.333333 0 1 1 0-170.666666 42.666667 42.666667 0 0 0 0-85.333334 170.666667 170.666667 0 1 0 170.666667 170.666667 42.666667 42.666667 0 1 0-85.333334 0 85.333333 85.333333 0 0 1-85.333333 85.333333z"  horiz-adv-x="1024" />

    
    <glyph glyph-name="menu" unicode="&#59182;" d="M490.666667 597.333333a42.666667 42.666667 0 0 0 42.666666 42.666667H896a42.666667 42.666667 0 1 0 0-85.333333h-362.666667a42.666667 42.666667 0 0 0-42.666666 42.666666zM85.333333 341.333333a42.666667 42.666667 0 0 0 42.666667 42.666667h768a42.666667 42.666667 0 1 0 0-85.333333H128a42.666667 42.666667 0 0 0-42.666667 42.666666z m0-256a42.666667 42.666667 0 0 0 42.666667 42.666667h768a42.666667 42.666667 0 1 0 0-85.333333H128a42.666667 42.666667 0 0 0-42.666667 42.666666zM213.333333 640a42.666667 42.666667 0 0 1 0-85.333333h85.333334a42.666667 42.666667 0 0 1 0 85.333333H213.333333zM85.333333 597.333333a128 128 0 0 0 128 128h85.333334a128 128 0 0 0 0-256H213.333333a128 128 0 0 0-128 128z"  horiz-adv-x="1024" />

    
    <glyph glyph-name="math" unicode="&#59193;" d="M104.578568-41.798094l304.677716 510.626369-73.257477 43.689957L6.062836-40.347451a42.665973 42.665973 0 0 1 16.213069-59.305703l14.847759-8.106535c76.372092-41.556658 174.674495-17.407717 219.388435 57.599064L512.038613 377.949752l255.526515-428.195709c44.71394-74.964115 143.016343-99.113056 219.388435-57.513732l14.805093 8.063869a42.665973 42.665973 0 0 1 16.213069 59.305703L688.121085 512.518232l-73.257476-43.689957 304.63505-510.583703c-31.231492-4.735923-63.017643 9.173184-78.633389 35.28476L570.064337 447.36729a42.665973 42.665973 0 0 1-36.650071 20.778329h-42.665973a42.665973 42.665973 0 0 1-36.650071-20.778329L183.254623-6.470668c-15.57308-26.111576-47.35923-40.020683-78.676055-35.28476zM512.038613 725.336107a127.99792 127.99792 0 1 1 0-255.99584 127.99792 127.99792 0 0 1 0 255.99584zM298.708747 597.338187a213.329867 213.329867 0 1 0 426.659733 0A213.329867 213.329867 0 0 0 298.708747 597.338187zM104.45057 376.883102a42.665973 42.665973 0 0 0 59.135039-11.946472c23.039626-34.730102 50.345849-65.833597 80.980018-92.414498a42.665973 42.665973 0 0 0-55.935091-64.42562 542.881845 542.881845 0 0 0-96.126438 109.651551 42.665973 42.665973 0 0 0 11.946472 59.135039z m815.176087 0a42.665973 42.665973 0 0 0 11.946472-59.135039 542.967177 542.967177 0 0 0-96.126438-109.651551 42.665973 42.665973 0 0 0-55.935091 64.42562 457.464566 457.464566 0 0 1 80.980018 92.414498 42.665973 42.665973 0 0 0 59.135039 11.946472zM295.722129 182.326264a42.665973 42.665973 0 0 0 56.233752 21.972976A397.305544 397.305544 0 0 1 512.038613 170.678453c56.617747 0 110.632869 11.946473 160.125398 33.620787a42.665973 42.665973 0 0 0 34.260777-78.164063A482.680156 482.680156 0 0 0 512.038613 85.346506c-68.777549 0-134.397816 14.506431-194.386174 40.788671a42.665973 42.665973 0 0 0-21.972976 56.233753zM512.038613 896a42.665973 42.665973 0 0 0 42.665974-42.665973v-64.297622a42.665973 42.665973 0 0 0-85.331947 0V853.334027a42.665973 42.665973 0 0 0 42.665973 42.665973z"  horiz-adv-x="1024" />

    
    <glyph glyph-name="mic" unicode="&#59194;" d="M256 640a256 256 0 1 0 512 0v-170.666667a256 256 0 0 0-512 0V640z m256 170.666667a170.666667 170.666667 0 0 1-170.666667-170.666667v-170.666667a170.666667 170.666667 0 0 1 341.333334 0V640a170.666667 170.666667 0 0 1-170.666667 170.666667zM123.093333 426.368a42.666667 42.666667 0 0 0 47.274667-37.461333C186.709333 247.338667 328.576 128 512 128c183.466667 0 325.290667 119.338667 341.632 260.906667a42.666667 42.666667 0 1 0 84.736-9.813334C916.053333 185.258667 728.746667 42.666667 512 42.666667s-404.010667 142.592-426.368 336.426666a42.666667 42.666667 0 0 0 37.461333 47.274667zM509.866667 128a42.666667 42.666667 0 0 0 42.666666-42.666667v-170.666666a42.666667 42.666667 0 0 0-85.333333 0v170.666666a42.666667 42.666667 0 0 0 42.666667 42.666667zM296.533333-85.333333a42.666667 42.666667 0 0 0 42.666667 42.666666h341.333333a42.666667 42.666667 0 1 0 0-85.333333h-341.333333a42.666667 42.666667 0 0 0-42.666667 42.666667z"  horiz-adv-x="1024" />

    
    <glyph glyph-name="map" unicode="&#59195;" d="M120.32 203.52A85.333333 85.333333 0 0 0 199.168 256H256a42.666667 42.666667 0 0 0 0-85.333333H199.125333L128 0h768l-71.125333 170.666667H768a42.666667 42.666667 0 1 0 0 85.333333h56.874667a85.333333 85.333333 0 0 0 78.805333-52.48l71.082667-170.666667A85.333333 85.333333 0 0 0 896-85.333333H128a85.333333 85.333333 0 0 0-78.762667 118.186666l71.125334 170.666667zM512 768C395.904 768 298.666667 669.184 298.666667 543.445333c0-48.213333 14.378667-92.586667 38.698666-128.981333 22.912-34.304 75.221333-110.336 122.026667-178.133333L512 160.256c14.890667 21.461333 33.28 48.042667 52.608 76.074667a19493.333333 19493.333333 0 0 1 122.026667 178.133333c24.32 36.352 38.698667 80.768 38.698666 128.981333C725.333333 669.184 628.096 768 512 768z m0-682.666667l-35.072-24.32v0.042667l-26.325333 37.973333-61.44 88.789334a19507.029333 19507.029333 0 0 0-122.752 179.2A316.8 316.8 0 0 0 213.333333 543.445333C213.333333 712.832 345.344 853.333333 512 853.333333s298.666667-140.501333 298.666667-309.888a316.8 316.8 0 0 0-53.077334-176.426666 19488 19488 0 0 0-122.752-179.2l-61.44-88.789334-26.325333-37.973333v-0.042667L512 85.333333z m0 0l35.072-24.32a42.666667 42.666667 0 0 0-70.144 0L512 85.333333zM512 597.333333a42.666667 42.666667 0 1 1 0-85.333333 42.666667 42.666667 0 0 1 0 85.333333zM384 554.666667a128 128 0 1 0 256 0 128 128 0 0 0-256 0z"  horiz-adv-x="1024" />

    
    <glyph glyph-name="message" unicode="&#59196;" d="M261.333333 725.333333C234.837333 725.333333 213.333333 703.829333 213.333333 677.333333v-450.688c0-26.453333 21.504-47.957333 48-47.957333h68.010667a42.666667 42.666667 0 0 0 42.666667-42.666667v-66.986666l210.261333 105.130666a42.666667 42.666667 0 0 0 19.072 4.48h203.989333c26.496 0 48 21.504 48 48V362.666667a42.666667 42.666667 0 1 0 85.333334 0v-136.021334c0-73.6-59.733333-133.290667-133.333334-133.290666H611.413333l-262.997333-131.498667A42.666667 42.666667 0 0 0 286.677333 0v93.354667h-25.344A133.333333 133.333333 0 0 0 128 226.645333V677.290667C128 750.976 187.733333 810.666667 261.333333 810.666667H448a42.666667 42.666667 0 0 0 0-85.333334H261.333333zM554.666667 672.768a42.666667 42.666667 0 0 0 42.666666 42.666667h297.344a42.666667 42.666667 0 0 0 0-85.333334H597.333333a42.666667 42.666667 0 0 0-42.666666 42.666667z m0-170.666667a42.666667 42.666667 0 0 0 42.666666 42.666667h169.344a42.666667 42.666667 0 0 0 0-85.333333H597.333333a42.666667 42.666667 0 0 0-42.666666 42.666666z"  horiz-adv-x="1024" />

    
    <glyph glyph-name="message1" unicode="&#59197;" d="M42.666667 682.666667a170.666667 170.666667 0 0 0 170.666666 170.666666h597.333334a170.666667 170.666667 0 0 0 170.666666-170.666666v-437.333334a170.666667 170.666667 0 0 0-170.666666-170.666666h-208.597334l-310.997333-155.477334a42.666667 42.666667 0 1 0-38.144 76.288l320 160a42.624 42.624 0 0 0 19.072 4.522667H810.666667a85.333333 85.333333 0 0 1 85.333333 85.333333V682.666667a85.333333 85.333333 0 0 1-85.333333 85.333333H213.333333a85.333333 85.333333 0 0 1-85.333333-85.333333v-437.333334a85.333333 85.333333 0 0 1 85.333333-85.333333h32a42.666667 42.666667 0 1 0 0-85.333333H213.333333a170.666667 170.666667 0 0 0-170.666666 170.666666V682.666667z m320-149.333334a42.666667 42.666667 0 0 0 42.666666-42.666666v-85.333334a42.666667 42.666667 0 1 0-85.333333 0v85.333334a42.666667 42.666667 0 0 0 42.666667 42.666666z m298.666666 0a42.666667 42.666667 0 0 0 42.666667-42.666666v-85.333334a42.666667 42.666667 0 1 0-85.333333 0v85.333334a42.666667 42.666667 0 0 0 42.666666 42.666666z"  horiz-adv-x="1024" />

    
    <glyph glyph-name="mine" unicode="&#59198;" d="M512 768C349.013333 768 218.666667 639.36 218.666667 482.858667c0-117.674667 73.557333-220.757333 137.514666-265.045334a42.666667 42.666667 0 0 0-2.474666-71.722666l-141.354667-84.096A85.333333 85.333333 0 0 1 170.666667-11.349333V-85.333333a42.666667 42.666667 0 1 0-85.333334 0v73.984a170.666667 170.666667 0 0 0 83.413334 146.688l90.112 53.589333c-66.304 66.730667-125.525333 172.885333-125.525334 293.973333C133.333333 688.426667 303.872 853.333333 512 853.333333s378.666667-164.864 378.666667-370.474666c0-121.045333-59.221333-227.2-125.525334-293.930667l90.112-53.589333A170.666667 170.666667 0 0 0 938.666667-11.349333V-85.333333a42.666667 42.666667 0 0 0-42.666667-42.666667H307.2a42.666667 42.666667 0 1 0 0 85.333333H853.333333v31.317334a85.333333 85.333333 0 0 1-41.685333 73.344l-141.354667 84.053333a42.666667 42.666667 0 0 0-2.474666 71.765333c64 44.288 137.514667 147.370667 137.514666 265.045334C805.333333 639.36 674.986667 768 512 768z m174.08-292.48a42.666667 42.666667 0 0 0 16.938667-57.941333l-37.418667 20.48 37.418667-20.48-0.042667-0.085334-0.042667-0.085333-0.128-0.213333-0.298666-0.512a65.408 65.408 0 0 0-3.2-5.162667c-1.962667-3.029333-4.778667-6.997333-8.448-11.52a194.730667 194.730667 0 0 0-33.408-32.426667c-30.805333-23.594667-77.824-45.909333-144.384-47.573333-67.712-1.706667-116.906667 20.949333-149.248 45.098667a210.773333 210.773333 0 0 0-35.541334 33.408 168.704 168.704 0 0 0-12.501333 17.066666l-0.298667 0.426667-0.128 0.256-0.042666 0.085333c-0.042667 0.042667-0.042667 0.085333 36.693333 21.76l-36.736-21.674666a42.666667 42.666667 0 1 0 73.984 42.666666c0.810667-1.194667 2.304-3.242667 4.437333-5.802666 4.352-5.205333 11.306667-12.458667 21.12-19.754667 19.157333-14.293333 49.962667-29.354667 96.128-28.202667 47.274667 1.152 77.098667 16.554667 94.634667 29.994667a109.653333 109.653333 0 0 1 18.773333 18.090667 65.834667 65.834667 0 0 1 4.138667 5.717333 42.666667 42.666667 0 0 0 57.6 16.384z"  horiz-adv-x="1024" />

    
    <glyph glyph-name="moon" unicode="&#59199;" d="M652.672 798.165333a42.666667 42.666667 0 0 0 49.066667 8.106667A425.045333 425.045333 0 0 0 938.666667 424.96C938.666667 190.293333 748.373333 0 513.664 0a425.045333 425.045333 0 0 0-381.226667 236.928 42.666667 42.666667 0 0 0 57.173334 57.173333c45.226667-22.4 96.213333-34.986667 150.229333-34.986666a339.285333 339.285333 0 0 1 281.088 148.906666 42.666667 42.666667 0 0 0 70.528-48.042666 424.618667 424.618667 0 0 0-410.88-182.058667A339.669333 339.669333 0 0 1 760.661333 658.218667c5.034667-35.84 5.546667-72.362667 1.408-108.416a42.666667 42.666667 0 0 0-84.778666 9.728 341.973333 341.973333 0 0 1-32.725334 189.568 42.666667 42.666667 0 0 0 8.106667 49.066666z"  horiz-adv-x="1024" />

    
    <glyph glyph-name="movie" unicode="&#59200;" d="M512 768a384 384 0 1 1 0-768 384 384 0 0 1 0 768zM42.666667 384C42.666667 643.2 252.8 853.333333 512 853.333333s469.333333-210.133333 469.333333-469.333333-210.133333-469.333333-469.333333-469.333333S42.666667 124.8 42.666667 384zM285.738667 399.104a21.333333 21.333333 0 1 1 30.165333-30.208 21.333333 21.333333 0 0 1-30.165333 30.208z m-60.373334-90.538667a106.666667 106.666667 0 1 0 150.869334 150.869334 106.666667 106.666667 0 0 0-150.869334-150.869334zM496.896 187.904a21.333333 21.333333 0 1 1 30.208-30.165333 21.333333 21.333333 0 0 1-30.208 30.165333z m-60.330667-90.496a106.666667 106.666667 0 1 0 150.869334 150.826667 106.666667 106.666667 0 0 0-150.869334-150.826667zM708.096 399.104a21.333333 21.333333 0 1 1 30.165333-30.208 21.333333 21.333333 0 0 1-30.165333 30.208z m-60.330667-90.538667a106.666667 106.666667 0 1 0 150.869334 150.869334 106.666667 106.666667 0 0 0-150.869334-150.869334zM496.896 610.261333a21.333333 21.333333 0 1 1 30.208-30.165333 21.333333 21.333333 0 0 1-30.208 30.165333z m-60.330667-90.496a106.666667 106.666667 0 1 0 150.869334 150.826667 106.666667 106.666667 0 0 0-150.869334-150.826667zM469.333333-42.666667a42.666667 42.666667 0 0 0 42.666667 42.666667h426.666667a42.666667 42.666667 0 1 0 0-85.333333H512a42.666667 42.666667 0 0 0-42.666667 42.666666z"  horiz-adv-x="1024" />

    
    <glyph glyph-name="noMic" unicode="&#59201;" d="M358.357525 844.798784A255.99968 255.99968 0 0 0 767.99968 639.99904v-170.666453a42.666613 42.666613 0 1 0-85.333227 0V639.99904a170.666453 170.666453 0 0 1-273.066325 136.533163A42.666613 42.666613 0 1 0 358.400192 844.798784zM298.666933 511.9992a42.666613 42.666613 0 0 0 42.666614-42.666613 170.666453 170.666453 0 0 1 170.666453-170.666454 42.666613 42.666613 0 1 0 0-85.333226 255.99968 255.99968 0 0 0-255.99968 255.99968 42.666613 42.666613 0 0 0 42.666613 42.666613zM123.093819 426.367307a42.666613 42.666613 0 0 0 47.274608-37.461286C186.70974 247.338197 328.576229 127.99968 512 127.99968c40.703949 0 79.6159 5.973326 115.626522 16.853312a42.666613 42.666613 0 0 0 24.746636-81.663898c-44.074612-13.311983-91.306553-20.522641-140.373158-20.522641-216.746396 0-404.010162 142.591822-426.367467 336.426246a42.666613 42.666613 0 0 0 37.461286 47.274608z m777.812362 0a42.666613 42.666613 0 0 0 37.461286-47.274608 339.498242 339.498242 0 0 0-48.682606-139.221159 42.666613 42.666613 0 1 0-72.703909 44.714611 254.293015 254.293015 0 0 1 36.650621 104.31987 42.666613 42.666613 0 0 0 47.274608 37.461286zM509.866669 127.99968a42.666613 42.666613 0 0 0 42.666614-42.666613v-170.666454a42.666613 42.666613 0 0 0-85.333227 0v170.666454a42.666613 42.666613 0 0 0 42.666613 42.666613zM296.533603-85.333387a42.666613 42.666613 0 0 0 42.666613 42.666614h341.332907a42.666613 42.666613 0 1 0 0-85.333227h-341.332907a42.666613 42.666613 0 0 0-42.666613 42.666613zM141.35513 841.684121a42.666613 42.666613 0 0 0 60.330591-1.706664l725.332427-767.99904a42.666613 42.666613 0 0 0-62.037256-58.623927l-725.332427 767.99904a42.666613 42.666613 0 0 0 1.706665 60.330591z"  horiz-adv-x="1024" />

    
    <glyph glyph-name="noCamera" unicode="&#59202;" d="M511.999787 810.666276c-54.570644 0-106.026622-12.799995-151.679937-35.455986a42.666649 42.666649 0 1 0-37.973318 76.415968A425.087823 425.087823 0 0 0 511.999787 895.999573c235.647902 0 426.666489-191.018587 426.666489-426.666489a425.045156 425.045156 0 0 0-47.445314-195.669251 42.666649 42.666649 0 1 0-75.775968 39.167983A341.333191 341.333191 0 0 1 511.999787 810.666276zM154.837269 616.95969a42.666649 42.666649 0 0 0 29.183988-52.778645 341.333191 341.333191 0 0 1 422.69849-422.869157h0.128l21.034658 6.271997a42.666649 42.666649 0 0 0 24.234657-81.834632l-21.631991-6.399998c-37.674651-10.879995-77.439968-16.68266-118.485284-16.682659-235.647902 0-426.666489 191.018587-426.666489 426.666488 0 41.045316 5.802664 80.810633 16.682659 118.485284a42.666649 42.666649 0 0 0 52.821312 29.183988zM213.333244-85.333351a42.666649 42.666649 0 0 0 42.666649 42.666649h511.999787a42.666649 42.666649 0 1 0 0-85.333298H255.999893a42.666649 42.666649 0 0 0-42.666649 42.666649zM445.738481 123.477229a42.666649 42.666649 0 0 0 19.071992-57.215977l-85.333298-170.666595a42.666649 42.666649 0 0 0-76.287968 38.143984l85.333298 170.666595a42.666649 42.666649 0 0 0 57.215976 19.071993zM578.261092 123.477229a42.666649 42.666649 0 0 1-19.071992-57.215977l85.333298-170.666595a42.666649 42.666649 0 0 1 76.287968 38.143984l-85.333297 170.666595a42.666649 42.666649 0 0 1-57.215977 19.071993zM469.333138 622.93302a42.666649 42.666649 0 0 0 42.666649 42.666649 196.266585 196.266585 0 0 0 196.266585-196.266585 42.666649 42.666649 0 1 0-85.333298 0A110.933287 110.933287 0 0 1 511.999787 580.266372a42.666649 42.666649 0 0 0-42.666649 42.666648z m-114.773286-178.815925a42.666649 42.666649 0 0 0 56.53331-20.991991c11.093329-24.106657 30.591987-43.605315 54.698644-54.698644a42.666649 42.666649 0 0 0-35.583985-77.525301 196.863918 196.863918 0 0 0-96.63996 96.63996 42.666649 42.666649 0 0 0 20.949325 56.575976zM511.999787 874.666249a42.666649 42.666649 0 0 0 42.666649-42.666649V767.999627a42.666649 42.666649 0 0 0-85.333298 0V831.9996a42.666649 42.666649 0 0 0 42.666649 42.666649zM97.834626 840.831596a42.666649 42.666649 0 0 0 60.330641 0l767.99968-767.99968a42.666649 42.666649 0 0 0-60.330641-60.330641l-767.99968 767.99968a42.666649 42.666649 0 0 0 0 60.330641z"  horiz-adv-x="1024" />

    
    </font>
</defs>
</svg>
